<?xml version="1.0" encoding="utf-8"?>
<!-- Generator: Adobe Illustrator 21.0.0, SVG Export Plug-In . SVG Version: 6.00 Build 0)  -->
<svg version="1.1" id="Layer_1" xmlns="http://www.w3.org/2000/svg" xmlns:xlink="http://www.w3.org/1999/xlink" x="0px" y="0px"
	 viewBox="0 0 612 792" style="enable-background:new 0 0 612 792;" xml:space="preserve">
<style type="text/css">
	.st0{fill:#010101;}
	.st1{fill:#434140;}
	.st2{fill:#5C5959;}
	.st3{fill:#FBFBFB;}
	.st4{fill:#FFFFFF;}
	.st5{fill:#FFFEFE;}
	.st6{fill:#EBEAE9;}
	.st7{fill:none;}
	.st8{fill:#445863;}
	.st9{fill:#8AD0C2;}
	.st10{fill:#252626;}
</style>
<path class="st0" d="M428.6,966.8c-0.2-0.1-0.4-0.2-0.6-0.3C428.3,966.6,428.4,966.7,428.6,966.8z"/>
<path class="st0" d="M450.9,967.2c-0.5-0.1-1.1-0.1-1.6-0.2C449.8,967.2,450.3,967.2,450.9,967.2z"/>
<path class="st0" d="M174.5,964.5c-0.3,0-0.7-0.1-1-0.1C173.9,964.4,174.2,964.4,174.5,964.5z"/>
<path class="st1" d="M380.6,860.9c-5.3,0-10.7,0-16,0C370,861.8,375.3,861.8,380.6,860.9z"/>
<path class="st1" d="M380.6,860.9c-5.3,0.8-10.7,0.8-16,0C370,862.8,375.3,862.4,380.6,860.9z"/>
<path class="st2" d="M444.6,860.9c-4.7,0-9.3,0-14,0C435.3,861.8,440,861.8,444.6,860.9z"/>
<path class="st2" d="M444.6,860.9c-4.7,0.8-9.3,0.8-14,0C435.3,862.2,440,862.9,444.6,860.9z"/>
<path class="st3" d="M254.4,949.2c0.1-0.1,0.1-0.2,0.2-0.4C254.5,948.9,254.5,949.1,254.4,949.2z"/>
<path class="st4" d="M415.2,885.6c0.6,0.1,1.2,0.1,1.8,0.3C416.5,885.7,415.8,885.6,415.2,885.6z"/>
<path class="st5" d="M238.8,912.8c0,0.1-0.1,0.2-0.1,0.3C238.8,913,238.8,912.9,238.8,912.8z"/>
<path class="st6" d="M415,885.5c0.1,0,0.2,0,0.2,0C415.2,885.5,415.1,885.5,415,885.5z"/>
<path class="st6" d="M449.2,967.1C449.2,967.1,449.2,967.1,449.2,967.1C449.2,967.1,449.2,967.1,449.2,967.1z"/>
<g>
	<path class="st7" d="M164,411.3c-1.4-5.4-2.1-11.2-2.1-17.1c0-1.8,0.1-3.8,0.2-5.9c0-0.2-0.1-0.4-0.1-0.7c-2.1,2.7-4.5,5.2-7,7.4
		c-2.8,2.4-5.8,4.3-9.1,5.7c0.7,1.2,1.3,2.4,2,3.6c2.2,3.9,4.5,7.8,7,11.6c2.2,3.4,4.5,6.4,6.8,8.9c1.6,1.7,3.1,3.1,4.6,4l5-1.8
		c0-0.1-0.1-0.1-0.1-0.2C167.8,422.4,165.5,417.2,164,411.3z"/>
	<path class="st7" d="M130.7,367.9c2.2-2.7,4.1-6.3,5.7-10.7c1.8-5,3.2-10.4,4.2-16.2c1-5.8,1.5-11.2,1.5-15.9c0-1.3-0.1-3.9-0.7-9
		c-0.4-3.8-1.1-7.7-2-11.5c-0.3,0.7-0.6,1.5-0.9,2.3c-1.9,4.9-3.7,10.5-5.4,16.6c-1.7,6.2-3.1,12.4-4.3,18.5c-1.1,6.1-2,11.8-2.6,17
		c-0.4,3.2-0.6,5.6-0.6,7.4c0.6,0.7,1.3,1.3,2,1.7c1.1,0.8,1.8,0.9,2.2,0.9C129.9,368.8,130.2,368.5,130.7,367.9z"/>
	<path class="st8" d="M345.7,205.3c8.6,6.3,16.4,13.4,23.3,21.4c16.3,19,27.1,40.9,33.7,64.9c6.8,24.8,7.3,50.1,5.2,75.6
		c-0.1,3.5-0.2,7.4-0.4,11.7c0.7-6.9,2.1-13.5,4.1-19.7c2.3-7.1,5.6-13.3,9.9-18.3c5.4-6.4,12.7-9.9,21.1-10.2
		c-1.2-19.2-5.2-37.9-12.7-56c-9.2-22.2-22.9-41.2-42.4-55.5c-10.9-8-22.8-14.3-36.5-16.2c-3-1.8-6.2-2.3-10.3-1.3
		C342.8,203.2,344.2,204.2,345.7,205.3C345.7,205.3,345.7,205.3,345.7,205.3z"/>
	<path class="st8" d="M415.4,436.1c-5.6,4.7-11.7,7.1-18.1,7.1c-2.1,0-4.1-0.2-6-0.6c-0.4,1-0.8,2.1-1.1,3.1
		c-15.4,40.9-39,76.8-67.4,109.7c-6.2,7.2-12.6,14.1-19.3,21.5c6.9,0,13.2-0.3,19.5,0.1c4.6,0.3,7.8-1.6,11-4.7
		c12.2-11.8,23.5-24.4,34.1-37.6c18.7-23.2,35.1-47.8,47.9-74.8c3.4-7.2,6.4-14.4,9.1-21.7c-2.6-1.5-4.7-3.3-6.5-5.1
		C417.6,434.2,416.5,435.2,415.4,436.1z"/>
	<path class="st9" d="M178.1,309c0.8,6.2,1.3,12.2,1.3,17.7c0,5.1-0.4,10.4-1,15.8c4.5-3.6,10-5.5,15.9-5.5c4.8,0,9.2,1.4,13,4.2
		c3.1,2.3,5.7,5.3,7.6,8.9c0,0.1,0,0.1,0.1,0.2c-2-5.1-3-11.1-3-17.7c0-7.6,1.6-15.6,4.7-23.8c3-7.8,6.9-15.1,11.7-21.6
		c4.9-6.6,10.5-12.3,16.7-16.7c7.3-5.3,15-8,22.7-8c3,0,6,0.4,8.9,1.1c3.7,1,7,2.6,9.9,5c2.9,2.4,5.2,5.4,7,8.9
		c1.8,3.7,2.8,8,2.8,12.7c0,2.7-0.4,5.8-1.2,10c-0.7,3.7-1.8,7.5-3,11.2c-1.3,3.9-2.9,7.5-4.6,10.6c-5,8.9-11.9,10.2-15.5,10.2
		c-3.4,0-6.7-1-9.9-2.9c-2.7-1.6-5.1-3.8-7-6.5c-0.3,1.9-0.5,3.7-0.5,5.4c0,4.2,0.9,5.8,1.2,6.2c1.5,2,3.3,3.6,5.7,4.9
		c3.2,1.8,6.8,3.5,10.7,4.9c5.3,2,10.3,4.5,14.9,7.5c0.5,0.3,1.1,0.7,1.6,1.1c0-1.9,0-3.8,0-5.6c0-7.3,3.3-13.3,9-16.4
		c3.1-1.7,6.4-2.6,9.9-2.6c1.2,0,2.4,0.1,3.6,0.3c4.2,0.7,8,2.5,11.3,5.4c1.6,1.3,2.9,2.8,3.9,4.5c1.1-0.1,2.2-0.2,3.4-0.2
		c6.9,0,12.9,3,17,8.5c1.5,2,2.7,4.3,3.8,6.7c0.4-0.5,0.8-1.1,1.3-1.6c7.3-9,15.7-10.9,21.5-10.9c2.6,0,5.1,0.4,7.5,1.3
		c2.2-0.7,4.5-1,6.9-1c2.3,0,4.4,0.3,6.4,0.8c-0.6-31-7.2-61.1-24.7-88.1c-19.9-30.8-45.5-52.5-84.8-53c-13.4-0.2-25.8,2-37.6,7.5
		c-22.2,10.3-38.6,27.2-50.8,48.1c-9.1,15.5-15.1,31.9-18.4,48.9C177.7,306.4,177.9,307.7,178.1,309z"/>
	<path class="st9" d="M377.8,434.6c-0.4-0.4-0.7-0.9-1.1-1.3c-0.9,0.7-1.8,1.4-2.7,2.1c-4.5,3.1-9.5,4.7-14.8,4.7
		c-8.8,0-16.2-4-20.4-11.1c-2.5,2-5.3,3.5-8.4,4.4c0.2,7.9,0.6,15.9,1.2,23.7c0.8,12.6,1.3,25.4,1.3,38.2c0,10.4-5.5,15.2-8.7,17
		c-3.5,2-7.6,3-12,3c-1,0-2.1-0.1-3.4-0.2c-2.5-0.3-4.9-1-7.1-2.1c-2-1-3.7-2.3-5.3-3.9c-2.6-2.6-4.3-6-4.8-9.8l0-0.3
		c-1.2-10.7-2-22.9-2.5-36.1c-0.4-10.5-0.6-21.3-0.7-32.3c-4.6,5.5-9.7,10.3-15.2,14c-7,4.8-13.9,7.2-20.6,7.2
		c-7.4,0-14.3-2.7-19.9-7.8c-2.4-2.2-5.1-5.6-7-10.4c-0.6,0.6-1.1,1.2-1.8,1.8l-0.2,0.2l-0.2,0.2c-2.5,2-5.4,3.8-8.8,5.2
		c-3.8,1.6-8.2,2.4-13.1,2.4c-2.4,0-4.7-0.2-7-0.6c1.1,2.8,2.2,5.5,3.4,8.3c9.3,21.8,21.2,42.2,34.5,61.9
		c14,20.8,30.1,39.8,47.4,57.8c2.7,2.8,4.4,2.8,7.3,0c18.4-17.8,34.8-37.3,49.6-58.2C353.8,488.2,367.9,462.4,377.8,434.6z"/>
	<path class="st9" d="M225,406.8c0.7-3.6,1.7-7.3,2.9-11.1c2.5-7.6,5.6-14.9,9.2-21.7c-1.7-1-3.4-2-5.1-3.1
		c-5.7-3.7-10.4-8.6-14.1-14.4c-0.6-0.9-1.1-1.9-1.6-2.9c0.7,1.9,1.3,3.9,1.7,6c0.6,3.1,0.9,6.3,0.9,9.5c0,3.7-0.4,7.8-1.3,12
		c-0.9,4.3-2.3,8.5-4.1,12.4c-2.1,4.5-4.7,8.3-7.8,11.4c-0.7,0.7-1.5,1.4-2.3,2c0.1,0.2,0.2,0.5,0.3,0.7c0.1,0.3,0.2,0.5,0.3,0.7
		c1.1-0.6,2.1-1.3,3.1-2.2l8-6.9l8.3,6.5C224.1,405.9,224.6,406.3,225,406.8z"/>
	<path class="st10" d="M140.7,376c3.1-3.8,5.7-8.6,7.9-14.4c2.1-5.8,3.7-11.9,4.8-18.5c1.1-6.6,1.6-12.6,1.6-18
		c0-2.4-0.3-5.9-0.8-10.4c-0.5-4.6-1.3-9.1-2.4-13.7c-1.1-4.6-2.5-8.5-4.3-11.9c-1.8-3.4-4-5-6.5-5c-2.7,0-5.2,1.7-7.7,5
		c-2.4,3.4-4.7,7.7-6.8,13.1c-2.1,5.4-4.1,11.3-5.8,17.9c-1.8,6.6-3.3,13-4.5,19.4c-1.2,6.4-2.1,12.4-2.8,17.9
		c-0.6,5.5-0.9,9.8-0.8,12.8c2,3.5,4.6,6.3,7.7,8.4c3.1,2.1,6.3,3.1,9.6,3.1C134,381.8,137.6,379.8,140.7,376z M127.5,368
		c-0.7-0.5-1.4-1.1-2-1.7c0.1-1.8,0.3-4.2,0.6-7.4c0.6-5.2,1.5-10.9,2.6-17c1.1-6.1,2.6-12.3,4.3-18.5c1.7-6.1,3.5-11.6,5.4-16.6
		c0.3-0.8,0.6-1.6,0.9-2.3c0.9,3.8,1.5,7.7,2,11.5c0.6,5.1,0.7,7.7,0.7,9c0,4.7-0.5,10.1-1.5,15.9c-1,5.7-2.4,11.2-4.2,16.2
		c-1.6,4.4-3.5,8-5.7,10.7c-0.5,0.6-0.8,0.9-1,1C129.4,368.9,128.7,368.8,127.5,368z"/>
	<path class="st9" d="M160.6,440.7c-2.9-1.6-5.7-3.9-8.5-7c-2.8-3-5.5-6.6-8.1-10.7c-2.6-4.1-5.1-8.2-7.4-12.3
		c-2.3-4.1-4.4-7.9-6.2-11.5c-1.9-3.6-3.4-6.5-4.5-8.8l3.6,0.2c6.6,0.5,12.3-1.3,16.9-5.3c4.7-4,8.5-9.2,11.4-15.5
		c2.9-6.3,5.1-13.4,6.5-21.1c1.4-7.7,2.1-15.1,2.1-22.1c0-5-0.4-10.3-1.2-16c-0.8-5.7-2.1-11-4-16c-1.9-5-4.5-9.1-7.8-12.4
		c-3.3-3.3-7.4-4.9-12.4-4.9c-4.5,0-8.3,1.4-11.5,4.2c-3.2,2.8-5.9,6.3-8.2,10.6c-2.3,4.3-4.2,8.9-5.7,14c-1.5,5.1-2.9,9.8-4,14.3
		l0.6-35.1c0-2.1-0.6-3.5-1.8-4.3c-1.2-0.8-2.7-1.2-4.3-1.3c-1.7-0.1-3.4,0.1-5.2,0.6c-1.8,0.5-3.2,1-4.2,1.4
		c0.3,2.2,0.4,6.4,0.3,12.4c-0.1,6-0.2,12.8-0.3,20.3c-0.1,7.5-0.3,15.3-0.5,23.3c-0.2,8-0.3,15.2-0.3,21.4v58
		c0,2.9-0.1,5.6-0.2,8.2c-0.1,2.6,0,4.8,0.4,6.7c0.4,1.9,1.2,3.4,2.6,4.5c1.3,1,3.5,1.6,6.6,1.6c0.9,0,1.8-0.1,2.8-0.2
		c1-0.2,1.8-0.5,2.6-1c0.8-0.5,1.4-1.2,1.8-2c0.4-0.9,0.5-2,0.3-3.5c-0.3-6.4-0.4-12.8-0.5-19.2c-0.1-6.4-0.2-12.8-0.3-19.2
		c2.4,4.8,5.3,10.5,8.6,17.1c3.3,6.6,7,12.9,11,18.9c4,6,8.4,11.1,13,15.3c4.7,4.2,9.5,6.3,14.7,6.3c4.3,0,7-0.9,8-2.8
		c1-1.8,1.5-3.8,1.5-5.9C166.3,442.6,163.5,442.3,160.6,440.7z M120.3,378.6c-3.1-2.1-5.6-4.9-7.7-8.4c-0.1-3,0.1-7.3,0.8-12.8
		c0.6-5.5,1.6-11.5,2.8-17.9c1.2-6.4,2.7-12.9,4.5-19.4c1.8-6.6,3.7-12.5,5.8-17.9c2.1-5.4,4.4-9.7,6.8-13.1c2.4-3.4,5-5,7.7-5
		c2.6,0,4.7,1.7,6.5,5c1.8,3.4,3.2,7.3,4.3,11.9c1.1,4.6,1.9,9.1,2.4,13.7c0.5,4.6,0.8,8,0.8,10.4c0,5.4-0.5,11.4-1.6,18
		c-1.1,6.6-2.7,12.7-4.8,18.5c-2.1,5.8-4.7,10.6-7.9,14.4c-3.1,3.8-6.7,5.8-10.8,5.8C126.6,381.8,123.4,380.7,120.3,378.6z"/>
	<path class="st10" d="M189.6,392.6c1,0,2-0.8,3-2.5c1-1.7,1.8-3.8,2.6-6.4c0.8-2.6,1.4-5.4,1.9-8.4c0.5-3,0.8-5.9,0.9-8.4
		c0.1-2.6-0.1-4.8-0.6-6.6c-0.4-1.8-1.2-2.8-2.4-3c-1.5-0.2-2.7,1-3.6,3.6c-0.9,2.6-1.6,5.7-2,9.4c-0.4,3.7-0.7,7.4-0.9,11.2
		c-0.1,3.8-0.2,6.7-0.2,8.8c0,0.5,0.1,1,0.2,1.6C188.6,392.3,189,392.6,189.6,392.6z"/>
	<path class="st9" d="M209.7,429.2c2.2-0.9,4.1-2,5.6-3.3c1.4-1.2,2.2-2.9,2.5-5.1c0.3-2.1-0.4-3.9-2.1-5.1c-2,1.8-4.2,3.2-6.4,4.3
		c-2.2,1.1-4.6,1.7-7.2,1.7c-2.4,0-4.4-0.9-6-2.7c-1.6-1.8-2.9-3.9-4-6.3c-1.1-2.4-1.9-4.9-2.4-7.5c-0.5-2.6-0.8-4.8-1-6.6h1
		c2.7,0,5-1,7.1-3c2-2,3.8-4.5,5.2-7.6c1.4-3,2.5-6.3,3.2-9.6c0.7-3.4,1.1-6.5,1.1-9.4c0-2.4-0.2-4.7-0.7-7
		c-0.4-2.2-1.1-4.3-2.1-6.1c-1-1.8-2.2-3.3-3.7-4.5c-1.5-1.1-3.3-1.7-5.4-1.7c-4.1,0-7.4,1.6-10,4.8c-2.6,3.2-4.5,7.1-5.9,11.7
		c-1.4,4.6-2.4,9.4-2.9,14.6c-0.5,5.1-0.8,9.6-0.8,13.5c0,4.8,0.6,9.4,1.7,13.8c1.1,4.4,2.9,8.3,5.2,11.7c2.3,3.4,5.1,6,8.4,7.9
		c3.3,1.9,7.1,2.9,11.5,2.9C204.7,430.6,207.4,430.1,209.7,429.2z M188.5,381.4c0.1-3.8,0.4-7.5,0.9-11.2c0.4-3.7,1.1-6.8,2-9.4
		c0.9-2.6,2.1-3.8,3.6-3.6c1.1,0.2,1.9,1.2,2.4,3c0.4,1.8,0.6,4.1,0.6,6.6c-0.1,2.6-0.4,5.4-0.9,8.4c-0.5,3-1.2,5.9-1.9,8.4
		c-0.8,2.6-1.6,4.7-2.6,6.4c-1,1.7-1.9,2.5-3,2.5c-0.6,0-1-0.3-1.2-0.8c-0.1-0.6-0.2-1.1-0.2-1.6
		C188.3,388.1,188.4,385.2,188.5,381.4z"/>
	<path class="st10" d="M322,413.5c2.2,0,4-1.7,5.4-5.2c1.4-3.4,2.5-7.4,3.4-11.9c0.8-4.5,1.4-8.9,1.7-13.4c0.3-4.4,0.5-7.5,0.5-9.3
		c0-1.4,0-2.9,0-4.5c0-1.5-0.1-2.9-0.3-4.2c-0.2-1.3-0.6-2.4-1.1-3.2c-0.6-0.9-1.4-1.5-2.6-1.8c-1.8-0.3-3.4,0.6-5,2.9
		c-1.5,2.2-2.8,5.1-3.8,8.4c-1,3.4-1.8,6.9-2.4,10.5c-0.6,3.6-0.9,6.5-0.9,8.5c0,0.8,0,2.5,0.1,5.1c0.1,2.6,0.2,5.2,0.5,7.8
		c0.3,2.6,0.7,5,1.4,7.1C319.5,412.5,320.6,413.5,322,413.5z"/>
	<path class="st9" d="M252.5,439c4.1,0,8.5-1.6,13.3-4.9c4.8-3.3,9.2-7.5,13.3-12.5c4.1-5.1,7.5-10.5,10.1-16.5
		c2.7-5.9,4-11.5,4-16.6c0-6.9-1.3-12.3-3.8-16.4c-2.6-4-5.7-7.3-9.6-9.7c-3.8-2.5-8-4.6-12.4-6.3c-4.5-1.7-8.6-3.6-12.4-5.8
		c-3.8-2.2-7-4.9-9.6-8.3c-2.6-3.4-3.8-8-3.8-14c0-4.5,0.8-9.5,2.5-15c1.7-5.5,3.8-10.7,6.5-15.4c2.7-4.7,5.6-8.6,8.9-11.7
		c3.3-3,6.5-4.4,9.7-4.1c2.7,0.3,4.1,2,4.2,5.2c0.1,3.1-0.3,6.6-1.3,10.5c-1,3.8-2.3,7.5-3.7,10.9c-1.5,3.5-2.5,5.7-3,6.6
		c0.9,1.3,1.9,2.3,3.2,3c1.2,0.7,2.3,1.1,3.4,1.1c1.5,0,3-1.2,4.3-3.6c1.3-2.4,2.6-5.2,3.6-8.4c1.1-3.2,1.9-6.4,2.6-9.6
		c0.6-3.2,1-5.7,1-7.5c0-2.7-0.5-5.1-1.4-7c-1-1.9-2.2-3.5-3.6-4.7c-1.5-1.2-3.1-2-5-2.5c-1.9-0.5-3.7-0.7-5.7-0.7
		c-5,0-10,1.8-15.1,5.5c-5.1,3.7-9.7,8.3-13.9,14c-4.2,5.6-7.5,11.8-10.1,18.5c-2.6,6.7-3.8,13.2-3.8,19.2c0,7.1,1.4,12.8,4.1,17.1
		c2.7,4.3,6.2,7.9,10.3,10.6c4.1,2.7,8.6,5,13.4,6.7c4.8,1.8,9.3,3.6,13.4,5.4c4.1,1.8,7.6,4,10.3,6.5c2.7,2.5,4.1,5.9,4.1,10.2
		c0,3.5-0.8,7.4-2.4,11.5c-1.6,4.2-3.6,8.2-6,12.1c-2.4,3.9-5,7.5-7.9,10.6c-2.8,3.1-5.4,5.4-7.9,6.9c-2.4,1.4-4.4,1.8-6,1
		c-1.6-0.8-2.4-3.2-2.4-7.2c0-4.2,0.6-8.6,1.7-13.2c1.1-4.7,2.5-9.1,4.1-13.2c1.6-4.2,3.2-7.9,4.9-11.2c1.7-3.3,2.9-5.7,3.8-7.3
		c-0.8-0.8-1.7-1.6-2.9-2.3c-1.1-0.7-2.3-1.2-3.4-1.6c-1.2-0.3-2.3-0.3-3.4,0c-1.1,0.3-2.1,1.2-2.9,2.6c-3.8,6.9-7,14.2-9.6,22
		c-2.6,7.8-3.8,15-3.8,21.8c0,5.8,1.6,10.1,4.9,13.1C244.5,437.5,248.2,439,252.5,439z"/>
	<path class="st10" d="M378.2,363.5c-0.8-1.3-2.1-1.9-3.7-1.9c-1.4,0-3,1.4-4.8,4.2c-1.8,2.8-3.5,6.3-5.3,10.5
		c-1.7,4.2-3.3,8.7-4.7,13.7c-1.4,5-2.4,9.5-3,13.7c-0.6,4.2-0.6,7.7-0.1,10.5c0.5,2.8,1.8,4.2,3.8,4.2c1.3,0,2.6-0.9,4.1-2.6
		c1.5-1.8,2.9-4,4.4-6.7c1.5-2.7,2.9-5.8,4.2-9.3c1.3-3.4,2.5-6.8,3.5-10c1-3.2,1.8-6.2,2.5-9c0.6-2.8,1-4.9,1-6.4
		c0-2.7-0.1-4.9-0.4-6.5C379.6,366.2,379,364.8,378.2,363.5z"/>
	<path class="st9" d="M322.6,421.7c4,0,7.2-1.4,9.7-4.2c2.5-2.8,4.4-6.3,5.8-10.5c1.4-4.2,2.4-8.6,2.9-13.4c0.5-4.7,0.8-9,0.8-12.9
		c0-2.6-0.1-5.6-0.3-9c-0.2-3.4-0.7-6.7-1.5-9.7c-0.8-3-2-5.7-3.6-7.8c-1.6-2.2-3.8-3.2-6.6-3.2c-6.3,0-10.6,3.7-13,11.1
		c-0.1-1.8-0.2-3.1-0.2-4.1s0-1.8,0-2.6c0-0.8,0-1.7,0-2.6s0-2.3,0-4.1c0-1.9-0.8-3.6-2.4-4.9c-1.6-1.4-3.3-2.2-5.2-2.5
		c-1.9-0.3-3.6,0-5.2,0.8c-1.6,0.9-2.4,2.6-2.4,5.2c0,10.6-0.1,22.5-0.2,35.6c-0.1,13.2-0.2,26.5-0.1,40.1
		c0.1,13.6,0.3,26.8,0.8,39.8c0.4,13,1.2,24.7,2.4,35.1c0.1,1,0.5,1.8,1.2,2.4c0.6,0.6,1.3,1.2,2.1,1.6c0.8,0.4,1.6,0.6,2.4,0.7
		c0.8,0.1,1.6,0.1,2.2,0.1c2.2,0,4-0.4,5.6-1.3c1.5-0.9,2.3-2.9,2.3-5.9c0-12.5-0.4-24.9-1.2-37.3c-0.8-12.4-1.3-24.8-1.4-37.3
		c0.9,0.3,1.8,0.6,2.7,0.7C320.8,421.6,321.7,421.7,322.6,421.7z M317.4,403.3c-0.3-2.6-0.4-5.3-0.5-7.8c-0.1-2.6-0.1-4.2-0.1-5.1
		c0-2.1,0.3-4.9,0.9-8.5c0.6-3.6,1.4-7.1,2.4-10.5c1-3.4,2.3-6.2,3.8-8.4c1.5-2.2,3.2-3.2,5-2.9c1.1,0.3,2,0.9,2.6,1.8
		c0.6,0.9,1,2,1.1,3.2c0.2,1.3,0.3,2.7,0.3,4.2c0,1.5,0,3,0,4.5c0,1.8-0.2,4.9-0.5,9.3c-0.3,4.4-0.9,8.9-1.7,13.4
		c-0.8,4.5-1.9,8.5-3.4,11.9c-1.4,3.5-3.2,5.2-5.4,5.2c-1.4,0-2.5-1-3.2-3.1C318.1,408.3,317.6,405.9,317.4,403.3z"/>
	<path class="st10" d="M526.7,405.5l-8.3-6.5l-8,6.9c-1,0.9-2.1,1.6-3.1,2.2c-0.1-0.2-0.2-0.5-0.4-0.7c-0.1-0.2-0.2-0.5-0.3-0.7
		c0.8-0.6,1.5-1.3,2.3-2c3.1-3.1,5.8-6.9,7.8-11.4c1.8-3.9,3.2-8.1,4.1-12.4c0.9-4.2,1.3-8.3,1.3-12c0-3.2-0.3-6.4-0.9-9.5
		c-0.7-3.4-1.8-6.6-3.3-9.5c-1.9-3.6-4.4-6.6-7.6-8.9c-3.7-2.7-8.2-4.2-13-4.2c-8,0-15.1,3.4-20,9.7c-3.6,4.5-6.3,9.8-8.2,15.9
		c-1.7,5.4-2.8,11.1-3.4,17.1c-0.1,0.9-0.2,1.7-0.2,2.6c-2,4.1-4.4,8.4-7.2,12.8c-1.9,3-4,5.8-6.3,8.2c1.6-7.3,2.9-14.7,3.9-22.2
		c5.6-1.8,9.9-6.2,11.4-12.1c0.8-3.3,1.3-6.9,1.3-10.6c0-8-2.2-14.5-6.4-19.4c-1.1-1.3-2.3-2.4-3.6-3.4c-1.1-32.2-9-62.7-26.8-90.8
		c-17-26.9-39.8-46.6-70.8-55.9c-15.5-4.6-31.3-3.6-49-3.7c-5.1,0-12.1,0.3-19.1-0.1c-36.1-1.9-66.1,11.3-90.5,37.3
		c-16.2,17.3-27.4,36.5-34.6,57.4c-1.6-2.3-3.3-4.4-5.2-6.3c-5.7-5.7-13.1-8.7-21.5-8.7c-7.6,0-14.5,2.6-20,7.4
		c-0.3,0.2-0.5,0.5-0.8,0.7c-1-1.1-2-1.8-2.9-2.4c-3.2-2.1-6.8-3.2-10.8-3.4c-0.4,0-0.9,0-1.3,0c-2.6,0-5.2,0.4-7.8,1.1
		c-2.5,0.7-4.6,1.4-6.4,2.2l-8.3,3.9l1,9.2c0.1,0.8,0.3,3.4,0.2,10.8c-0.1,6-0.2,12.7-0.3,20.2c-0.1,7.5-0.3,15.3-0.5,23.2
		c-0.2,8.1-0.3,15.4-0.3,21.7v58c0,2.6-0.1,5.2-0.2,7.5c-0.2,3.7,0,6.9,0.6,9.9c1,5,3.5,9.1,7.3,12.1c3.7,2.9,8.4,4.3,14.5,4.3
		c1.6,0,3.2-0.1,4.9-0.4c2.6-0.4,5.1-1.4,7.3-2.7c2.7-1.7,4.9-4.2,6.5-7.2c0-0.1,0.1-0.1,0.1-0.2c3.7,5,7.8,9.5,12,13.3
		c7.1,6.3,14.9,9.5,23.2,9.5c11.6,0,16.9-5.1,19.3-9.4c0.6-1,1-2,1.4-3.1c21.8,53.8,55.1,99.6,97.2,139.5c2.1,2,4.4,2.9,7.2,2.8
		c12.8-0.1,25.7-0.7,38.5-0.1c9.7,0.4,16.7-2.5,23.6-9.6c28.2-28.8,53.5-59.8,73.2-95c8.3-14.7,15.2-29.8,20.9-45.3
		c1.2,0.1,2.4,0.2,3.7,0.2c7,0,14.1-2.4,21-7c3.4-2.3,6.6-4.9,9.7-7.9c3.2,4.3,7.1,7.9,11.6,10.5c5.3,3.1,11.3,4.6,17.9,4.6
		c4.9,0,9.3-0.8,13.1-2.4c3.4-1.4,6.3-3.1,8.8-5.2l0.2-0.2l0.2-0.2c3.8-3.3,6.1-7.9,6.7-13.2C534.5,415.7,532,409.6,526.7,405.5z
		 M350.9,203c13.7,1.9,25.6,8.2,36.5,16.2c19.6,14.3,33.2,33.3,42.4,55.5c7.5,18.1,11.6,36.8,12.7,56c-8.4,0.3-15.7,3.8-21.1,10.2
		c-4.3,5-7.6,11.2-9.9,18.3c-2,6.2-3.4,12.8-4.1,19.7c0.2-4.3,0.4-8.2,0.4-11.7c2.1-25.4,1.6-50.7-5.2-75.6
		c-6.6-24-17.4-45.9-33.7-64.9c-7-8.1-14.7-15.2-23.3-21.4c0,0,0,0,0,0c-1.5-1-3-2-5.1-3.5C344.7,200.8,347.9,201.2,350.9,203z
		 M246.7,208.2c11.8-5.5,24.3-7.6,37.6-7.5c39.4,0.5,64.9,22.1,84.8,53c17.4,27,24.1,57,24.7,88.1c-2-0.5-4.1-0.8-6.4-0.8
		c-2.4,0-4.7,0.4-6.9,1c-2.4-0.9-4.9-1.3-7.5-1.3c-5.8,0-14.2,1.9-21.5,10.9c-0.4,0.5-0.8,1.1-1.3,1.6c-1-2.4-2.3-4.7-3.8-6.7
		c-4-5.5-10.1-8.5-17-8.5c-1.1,0-2.3,0.1-3.4,0.2c-1-1.6-2.4-3.1-3.9-4.5c-3.4-2.9-7.2-4.7-11.3-5.4c-1.2-0.2-2.4-0.3-3.6-0.3
		c-3.5,0-6.8,0.9-9.9,2.6c-5.7,3.2-9,9.2-9,16.4c0,1.8,0,3.7,0,5.6c-0.5-0.4-1-0.7-1.6-1.1c-4.6-3-9.6-5.5-14.9-7.5
		c-3.8-1.4-7.4-3.1-10.7-4.9c-2.3-1.3-4.2-2.9-5.7-4.9c-0.3-0.4-1.2-1.9-1.2-6.2c0-1.6,0.2-3.4,0.5-5.4c1.9,2.7,4.2,4.8,7,6.5
		c3.2,1.9,6.6,2.9,9.9,2.9c3.7,0,10.6-1.3,15.5-10.2c1.7-3.1,3.3-6.6,4.6-10.6c1.3-3.7,2.3-7.5,3-11.2c0.8-4.1,1.2-7.3,1.2-10
		c0-4.7-0.9-9-2.8-12.7c-1.8-3.6-4.1-6.5-7-8.9c-2.9-2.4-6.2-4.1-9.9-5c-2.9-0.8-5.9-1.1-8.9-1.1c-7.7,0-15.3,2.7-22.7,8
		c-6.2,4.5-11.8,10.1-16.7,16.7c-4.8,6.5-8.8,13.8-11.7,21.6c-3.1,8.2-4.7,16.2-4.7,23.8c0,6.6,1,12.5,3,17.7c0-0.1,0-0.1-0.1-0.2
		c-1.9-3.6-4.4-6.6-7.6-8.9c-3.7-2.7-8.2-4.2-13-4.2c-6,0-11.5,1.9-15.9,5.5c0.7-5.4,1-10.7,1-15.8c0-5.5-0.4-11.5-1.3-17.7
		c-0.2-1.3-0.4-2.5-0.6-3.8c3.4-17,9.4-33.4,18.4-48.9C208.1,235.4,224.5,218.5,246.7,208.2z M318.6,458c0.8,12.3,1.2,24.8,1.2,37.3
		c0,3-0.8,5-2.3,5.9c-1.5,0.9-3.4,1.3-5.6,1.3c-0.6,0-1.4,0-2.2-0.1c-0.8-0.1-1.6-0.3-2.4-0.7c-0.8-0.4-1.5-0.9-2.1-1.6
		c-0.6-0.6-1-1.4-1.2-2.4c-1.1-10.4-1.9-22.1-2.4-35.1c-0.4-13-0.7-26.3-0.8-39.8c-0.1-13.6,0-26.9,0.1-40.1
		c0.1-13.1,0.2-25,0.2-35.6c0-2.6,0.8-4.3,2.4-5.2c1.6-0.9,3.3-1.2,5.2-0.8c1.8,0.3,3.6,1.2,5.2,2.5c1.6,1.4,2.4,3,2.4,4.9
		c0,1.8,0,3.1,0,4.1s0,1.8,0,2.6c0,0.8,0,1.7,0,2.6s0.1,2.3,0.2,4.1c2.4-7.4,6.8-11.1,13-11.1c2.8,0,5,1.1,6.6,3.2
		c1.6,2.2,2.8,4.8,3.6,7.8c0.8,3,1.3,6.3,1.5,9.7c0.2,3.5,0.3,6.5,0.3,9c0,3.8-0.3,8.1-0.8,12.9c-0.5,4.7-1.5,9.2-2.9,13.4
		c-1.4,4.2-3.4,7.7-5.8,10.5c-2.5,2.8-5.7,4.2-9.7,4.2c-0.9,0-1.8-0.1-2.7-0.2c-0.9-0.2-1.8-0.4-2.7-0.7
		C317.3,433.2,317.8,445.7,318.6,458z M181.6,419.8c-2.3-3.4-4-7.3-5.2-11.7c-1.1-4.4-1.7-9-1.7-13.8c0-3.8,0.3-8.3,0.8-13.5
		c0.5-5.1,1.5-10,2.9-14.6c1.4-4.6,3.4-8.5,5.9-11.7c2.6-3.2,5.9-4.8,10-4.8c2,0,3.8,0.6,5.4,1.7c1.5,1.1,2.8,2.6,3.7,4.5
		c1,1.8,1.7,3.9,2.1,6.1c0.4,2.2,0.7,4.6,0.7,7c0,2.9-0.4,6-1.1,9.4c-0.7,3.4-1.8,6.6-3.2,9.6c-1.4,3-3.1,5.6-5.2,7.6
		c-2,2-4.4,3-7.1,3h-1c0.1,1.8,0.4,4,1,6.6c0.5,2.6,1.3,5.1,2.4,7.5c1.1,2.4,2.4,4.5,4,6.3c1.6,1.8,3.6,2.7,6,2.7
		c2.6,0,4.9-0.6,7.2-1.7c2.2-1.1,4.4-2.6,6.4-4.3c1.7,1.3,2.4,3,2.1,5.1c-0.3,2.1-1.1,3.8-2.5,5.1c-1.5,1.2-3.4,2.3-5.6,3.3
		c-2.2,0.9-5,1.4-8.1,1.4c-4.3,0-8.2-1-11.5-2.9C186.7,425.8,183.9,423.1,181.6,419.8z M215.3,399.1l-8,6.9c-1,0.9-2.1,1.6-3.1,2.2
		c-0.1-0.2-0.2-0.5-0.3-0.7c-0.1-0.2-0.2-0.5-0.3-0.7c0.8-0.6,1.5-1.3,2.3-2c3.1-3.1,5.8-6.9,7.8-11.4c1.8-3.9,3.2-8.1,4.1-12.4
		c0.9-4.2,1.3-8.3,1.3-12c0-3.2-0.3-6.4-0.9-9.5c-0.4-2.1-1-4.1-1.7-6c0.5,1,1,2,1.6,2.9c3.7,5.9,8.5,10.7,14.1,14.4
		c1.7,1.1,3.4,2.1,5.1,3.1c-3.6,6.9-6.7,14.2-9.2,21.7c-1.2,3.8-2.2,7.5-2.9,11.1c-0.5-0.4-0.9-0.9-1.5-1.3L215.3,399.1z
		 M240.2,399.7c2.6-7.8,5.7-15.1,9.6-22c0.8-1.4,1.7-2.3,2.9-2.6c1.1-0.3,2.3-0.3,3.4,0c1.1,0.3,2.3,0.8,3.4,1.6
		c1.1,0.7,2.1,1.5,2.9,2.3c-0.9,1.6-2.2,4.1-3.8,7.3c-1.7,3.3-3.3,7-4.9,11.2c-1.6,4.2-3,8.6-4.1,13.2c-1.1,4.7-1.7,9.1-1.7,13.2
		c0,4,0.8,6.4,2.4,7.2c1.6,0.8,3.6,0.5,6-1c2.4-1.4,5-3.7,7.9-6.9c2.8-3.1,5.4-6.7,7.9-10.6c2.4-3.9,4.4-8,6-12.1
		c1.6-4.2,2.4-8,2.4-11.5c0-4.3-1.4-7.7-4.1-10.2c-2.7-2.5-6.2-4.6-10.3-6.5c-4.2-1.8-8.6-3.6-13.4-5.4c-4.8-1.8-9.3-4-13.4-6.7
		c-4.2-2.7-7.6-6.3-10.3-10.6c-2.7-4.3-4.1-10-4.1-17.1c0-6.1,1.3-12.5,3.8-19.2c2.6-6.7,5.9-12.9,10.1-18.5
		c4.1-5.6,8.8-10.3,13.9-14c5.1-3.7,10.2-5.5,15.1-5.5c1.9,0,3.8,0.2,5.7,0.7c1.8,0.5,3.5,1.3,5,2.5c1.5,1.2,2.7,2.8,3.6,4.7
		c1,1.9,1.4,4.3,1.4,7c0,1.8-0.3,4.3-1,7.5c-0.6,3.2-1.5,6.4-2.6,9.6c-1.1,3.2-2.3,6-3.6,8.4c-1.3,2.4-2.8,3.6-4.3,3.6
		c-1,0-2.1-0.4-3.4-1.1c-1.2-0.7-2.3-1.7-3.2-3c0.5-1,1.5-3.2,3-6.6c1.5-3.4,2.7-7.1,3.7-10.9c1-3.8,1.5-7.3,1.3-10.5
		c-0.1-3.1-1.5-4.8-4.2-5.2c-3.2-0.3-6.4,1-9.7,4.1c-3.3,3-6.2,6.9-8.9,11.7c-2.7,4.7-4.9,9.9-6.5,15.4c-1.7,5.5-2.5,10.5-2.5,15
		c0,5.9,1.3,10.6,3.8,14c2.6,3.4,5.7,6.1,9.6,8.3c3.8,2.2,8,4.1,12.4,5.8c4.5,1.7,8.6,3.8,12.4,6.3c3.8,2.5,7,5.7,9.6,9.7
		c2.6,4,3.8,9.5,3.8,16.4c0,5.1-1.3,10.7-4,16.6c-2.7,5.9-6.1,11.4-10.1,16.5c-4.1,5.1-8.5,9.2-13.3,12.5c-4.8,3.3-9.2,4.9-13.3,4.9
		c-4.2,0-7.9-1.5-11.2-4.5c-3.3-3-4.9-7.3-4.9-13.1C236.4,414.7,237.6,407.5,240.2,399.7z M167.4,447.6c-1,1.8-3.7,2.8-8,2.8
		c-5.1,0-10-2.1-14.7-6.3c-4.7-4.2-9-9.3-13-15.3c-4-6-7.7-12.3-11-18.9c-3.3-6.6-6.2-12.3-8.6-17.1c0.1,6.4,0.2,12.8,0.3,19.2
		c0.1,6.4,0.2,12.8,0.5,19.2c0.3,1.4,0.2,2.6-0.3,3.5c-0.4,0.9-1.1,1.6-1.8,2c-0.8,0.5-1.6,0.8-2.6,1c-1,0.2-1.9,0.2-2.8,0.2
		c-3.1,0-5.3-0.5-6.6-1.6c-1.3-1-2.2-2.5-2.6-4.5c-0.4-1.9-0.5-4.2-0.4-6.7c0.1-2.6,0.2-5.3,0.2-8.2v-58c0-6.3,0.1-13.4,0.3-21.4
		c0.2-8,0.4-15.8,0.5-23.3c0.1-7.5,0.2-14.3,0.3-20.3c0.1-6,0-10.1-0.3-12.4c1-0.5,2.4-1,4.2-1.4c1.8-0.5,3.5-0.7,5.2-0.6
		c1.7,0.1,3.1,0.5,4.3,1.3c1.2,0.8,1.8,2.2,1.8,4.3l-0.6,35.1c1.1-4.5,2.5-9.3,4-14.3c1.5-5.1,3.4-9.7,5.7-14
		c2.3-4.2,5-7.8,8.2-10.6c3.2-2.8,7-4.2,11.5-4.2c5,0,9.1,1.6,12.4,4.9c3.3,3.3,5.8,7.4,7.8,12.4c1.9,5,3.3,10.3,4,16
		c0.8,5.7,1.2,11,1.2,16c0,7.1-0.7,14.4-2.1,22.1c-1.4,7.7-3.6,14.7-6.5,21.1c-2.9,6.3-6.7,11.5-11.4,15.5c-4.7,4-10.3,5.8-16.9,5.3
		l-3.6-0.2c1.1,2.2,2.6,5.2,4.5,8.8c1.8,3.6,3.9,7.5,6.2,11.5c2.3,4.1,4.8,8.2,7.4,12.3c2.6,4.1,5.3,7.7,8.1,10.7
		c2.8,3,5.6,5.4,8.5,7c2.9,1.6,5.7,1.9,8.3,1C169,443.7,168.4,445.7,167.4,447.6z M166.1,429c-1.5-0.9-3-2.3-4.6-4
		c-2.3-2.5-4.6-5.5-6.8-8.9c-2.5-3.8-4.8-7.8-7-11.6c-0.7-1.2-1.4-2.4-2-3.6c3.2-1.4,6.3-3.3,9.1-5.7c2.6-2.2,4.9-4.7,7-7.4
		c0,0.2,0.1,0.4,0.1,0.7c-0.1,2.1-0.2,4-0.2,5.9c0,5.9,0.7,11.6,2.1,17.1c1.5,5.8,3.9,11.1,7,15.7c0,0.1,0.1,0.1,0.1,0.2L166.1,429z
		 M287.1,570.7c-2.9,2.8-4.6,2.8-7.3,0c-17.4-18-33.4-37-47.4-57.8c-13.3-19.7-25.1-40-34.5-61.9c-1.2-2.7-2.3-5.5-3.4-8.3
		c2.2,0.4,4.6,0.6,7,0.6c4.9,0,9.3-0.8,13.1-2.4c3.4-1.4,6.3-3.1,8.8-5.2l0.2-0.2l0.2-0.2c0.6-0.6,1.2-1.2,1.8-1.8
		c1.8,4.8,4.5,8.1,7,10.4c5.6,5.1,12.5,7.8,19.9,7.8c6.7,0,13.6-2.4,20.6-7.2c5.4-3.7,10.5-8.4,15.2-14c0.1,11,0.3,21.8,0.7,32.3
		c0.5,13.2,1.3,25.4,2.5,36.1l0,0.3c0.5,3.8,2.2,7.2,4.8,9.8c1.6,1.6,3.3,2.9,5.3,3.9c2.2,1.2,4.6,1.9,7.1,2.1
		c1.3,0.1,2.4,0.2,3.4,0.2c4.4,0,8.4-1,12-3c3.3-1.9,8.7-6.6,8.7-17c0-12.7-0.4-25.6-1.3-38.2c-0.5-7.8-0.9-15.8-1.2-23.7
		c3.1-0.9,5.9-2.4,8.4-4.4c4.3,7,11.6,11.1,20.4,11.1c5.4,0,10.3-1.6,14.8-4.7c0.9-0.6,1.8-1.3,2.7-2.1c0.4,0.5,0.7,0.9,1.1,1.3
		c-9.9,27.8-23.9,53.5-41.1,77.9C322,533.4,305.5,552.9,287.1,570.7z M416,460c-12.7,27.1-29.2,51.6-47.9,74.8
		c-10.6,13.2-21.9,25.8-34.1,37.6c-3.2,3.1-6.3,4.9-11,4.7c-6.3-0.4-12.7-0.1-19.5-0.1c6.6-7.4,13.1-14.3,19.3-21.5
		c28.4-32.9,52-68.9,67.4-109.7c0.4-1,0.8-2.1,1.1-3.1c1.9,0.4,3.9,0.6,6,0.6c6.4,0,12.5-2.4,18.1-7.1c1.1-0.9,2.2-1.9,3.2-3
		c1.8,1.8,3.9,3.6,6.5,5.1C422.4,445.6,419.3,452.8,416,460z M521,420.8c-0.3,2.1-1.1,3.8-2.5,5.1c-1.5,1.2-3.4,2.3-5.7,3.3
		c-2.2,0.9-4.9,1.4-8.1,1.4c-4.3,0-8.2-1-11.5-2.9c-3.3-1.9-6.1-4.6-8.4-7.9c-2.3-3.4-4-7.3-5.2-11.7c-0.4-1.7-0.8-3.4-1-5.2
		c-2.1,3.7-4.4,7.2-7.1,10.4c-4,4.9-8.4,8.9-13.2,12.1c-4.8,3.2-9.4,4.8-13.9,4.8c-8.3,0-14.6-2.9-18.8-8.8
		c-2.6-3.6-4.4-8.1-5.4-13.3c-1.3,2.8-2.7,5.5-4.4,8c-2.6,3.9-5.5,7.3-8.7,10c-3.3,2.7-6.5,4.1-9.9,4.1c-3.4,0-6.2-0.8-8.1-2.5
		c-2-1.7-3.5-3.9-4.6-6.6c-1.1-2.7-1.9-5.8-2.3-9.1c-0.4-3.4-0.9-6.7-1.2-10.1c-0.9,2.9-2,5.8-3.4,8.8c-1.3,3-2.9,5.7-4.8,8.1
		c-1.9,2.4-3.9,4.4-6.2,6c-2.3,1.6-4.8,2.4-7.5,2.4c-4.6,0-7.9-1.8-9.8-5.4c-1.9-3.6-2.9-8-2.9-13.1c0-4.5,0.6-9.9,1.7-16.1
		c1.1-6.3,2.8-12.3,5.1-18c2.2-5.8,5-10.7,8.3-14.8c3.3-4.1,7.1-6.1,11.5-6.1c1.4,0,2.7,0.3,3.9,0.8c1.2,0.6,2.5,1.2,3.7,2
		c1.9-1.8,4.1-2.6,6.7-2.6c2.3,0,4.1,0.4,5.6,1.3c1.4,0.9,2.1,3,2.1,6.4c0,4.7-0.2,10.2-0.5,16.7c-0.3,6.5-0.5,12.8-0.5,18.9
		c0,6.1,0.4,11.3,1.1,15.5c0.8,4.3,2.3,6.4,4.6,6.4c1.3,0,2.9-1,4.8-3c1.9-2,3.9-4.6,5.8-7.7c2-3.1,3.8-6.5,5.6-10
		c1.3-2.7,2.4-5.4,3.4-7.9c0.2-3,0.4-6.2,0.8-9.7c0.6-6.3,1.8-12.1,3.6-17.7c1.8-5.5,4.3-10.2,7.5-14c3.2-3.8,7.3-5.7,12.4-5.7
		c3.7,0,6.6,1.2,8.8,3.7c2.2,2.5,3.3,6.1,3.3,10.9c0,2.7-0.3,5.2-0.9,7.5c-0.6,2.2-2.2,3.4-4.9,3.4c-0.8,0-1.8-0.2-3.2-0.6
		c-1.3-0.4-2-1.2-2-2.5c0-1.1,0.1-2.5,0.4-4.1c0.3-1.6,0.4-3.1,0.5-4.6c0.1-1.4,0-2.7-0.3-3.7c-0.3-1-0.9-1.6-1.9-1.6
		c-1.8,0-3.3,1.9-4.6,5.6c-1.3,3.8-2.3,8.2-3.1,13.2c-0.8,5-1.3,10.1-1.7,15.2c-0.4,5.1-0.6,8.9-0.6,11.5c0,2.4,0.2,5,0.5,7.8
		c0.3,2.8,0.9,5.4,1.8,7.8c0.9,2.4,2.1,4.4,3.6,6c1.5,1.6,3.5,2.4,5.9,2.4c4.2,0,8.4-2,12.5-5.9c4.1-3.9,7.9-8.5,11.2-13.7
		c3.3-5.2,6.1-10.3,8.4-15.2c0.2-0.4,0.4-0.8,0.6-1.2c0.1-1.5,0.2-3.1,0.4-4.7c0.5-5.1,1.5-10,2.9-14.6c1.4-4.6,3.4-8.5,5.9-11.7
		c2.6-3.2,5.9-4.8,10-4.8c2,0,3.8,0.6,5.4,1.7c1.5,1.1,2.8,2.6,3.7,4.5c1,1.8,1.7,3.9,2.1,6.1c0.4,2.2,0.7,4.6,0.7,7
		c0,2.9-0.4,6-1.1,9.4c-0.7,3.4-1.8,6.6-3.2,9.6c-1.4,3-3.1,5.6-5.2,7.6c-2,2-4.4,3-7.1,3h-1c0.1,1.8,0.4,4,1,6.6
		c0.5,2.6,1.3,5.1,2.4,7.5c1.1,2.4,2.4,4.5,4,6.3c1.6,1.8,3.6,2.7,6,2.7c2.6,0,4.9-0.6,7.2-1.7c2.2-1.1,4.4-2.6,6.4-4.3
		C520.5,417,521.2,418.7,521,420.8z"/>
	<path class="st10" d="M492.8,392.6c1,0,2-0.8,3-2.5c1-1.7,1.8-3.8,2.6-6.4c0.8-2.6,1.4-5.4,1.9-8.4c0.5-3,0.8-5.9,0.9-8.4
		c0.1-2.6-0.1-4.8-0.6-6.6c-0.4-1.8-1.2-2.8-2.4-3c-1.5-0.2-2.7,1-3.6,3.6c-0.9,2.6-1.6,5.7-2,9.4c-0.4,3.7-0.7,7.4-0.9,11.2
		c-0.1,3.8-0.2,6.7-0.2,8.8c0,0.5,0.1,1,0.2,1.6C491.8,392.3,492.2,392.6,492.8,392.6z"/>
	<path class="st9" d="M518.9,415.7c-2,1.8-4.2,3.2-6.4,4.3c-2.2,1.1-4.6,1.7-7.2,1.7c-2.4,0-4.4-0.9-6-2.7c-1.6-1.8-2.9-3.9-4-6.3
		c-1.1-2.4-1.9-4.9-2.4-7.5c-0.5-2.6-0.8-4.8-1-6.6h1c2.7,0,5-1,7.1-3c2-2,3.8-4.5,5.2-7.6c1.4-3,2.5-6.3,3.2-9.6
		c0.7-3.4,1.1-6.5,1.1-9.4c0-2.4-0.2-4.7-0.7-7c-0.4-2.2-1.1-4.3-2.1-6.1c-1-1.8-2.2-3.3-3.7-4.5c-1.5-1.1-3.3-1.7-5.4-1.7
		c-4.1,0-7.4,1.6-10,4.8c-2.6,3.2-4.5,7.1-5.9,11.7c-1.4,4.6-2.4,9.4-2.9,14.6c-0.2,1.6-0.3,3.2-0.4,4.7c-0.2,0.4-0.4,0.8-0.6,1.2
		c-2.3,4.9-5.1,9.9-8.4,15.2c-3.3,5.2-7.1,9.8-11.2,13.7c-4.2,3.9-8.3,5.9-12.5,5.9c-2.4,0-4.4-0.8-5.9-2.4c-1.5-1.6-2.7-3.6-3.6-6
		c-0.9-2.4-1.5-5-1.8-7.8c-0.3-2.8-0.5-5.4-0.5-7.8c0-2.6,0.2-6.4,0.6-11.5c0.4-5.1,1-10.2,1.7-15.2c0.8-5,1.8-9.4,3.1-13.2
		c1.3-3.8,2.8-5.6,4.6-5.6c1,0,1.7,0.5,1.9,1.6c0.3,1,0.4,2.3,0.3,3.7c-0.1,1.4-0.2,3-0.5,4.6c-0.3,1.6-0.4,3-0.4,4.1
		c0,1.3,0.7,2.1,2,2.5c1.3,0.4,2.4,0.6,3.2,0.6c2.7,0,4.3-1.1,4.9-3.4c0.6-2.2,0.9-4.7,0.9-7.5c0-4.8-1.1-8.5-3.3-10.9
		c-2.2-2.5-5.1-3.7-8.8-3.7c-5.1,0-9.3,1.9-12.4,5.7c-3.2,3.8-5.7,8.4-7.5,14c-1.8,5.5-3,11.4-3.6,17.7c-0.4,3.4-0.6,6.6-0.8,9.7
		c-0.9,2.5-2,5.2-3.4,7.9c-1.7,3.5-3.6,6.9-5.6,10c-2,3.1-3.9,5.7-5.8,7.7c-1.9,2-3.5,3-4.8,3c-2.3,0-3.8-2.1-4.6-6.4
		c-0.8-4.2-1.1-9.4-1.1-15.5c0-6.1,0.2-12.4,0.5-18.9c0.3-6.5,0.5-12.1,0.5-16.7c0-3.4-0.7-5.5-2.1-6.4c-1.4-0.9-3.3-1.3-5.6-1.3
		c-2.6,0-4.8,0.9-6.7,2.6c-1.3-0.8-2.5-1.5-3.7-2c-1.2-0.6-2.5-0.8-3.9-0.8c-4.3,0-8.2,2-11.5,6.1c-3.3,4.1-6.1,9-8.3,14.8
		c-2.2,5.8-3.9,11.8-5.1,18c-1.1,6.3-1.7,11.6-1.7,16.1c0,5.1,1,9.5,2.9,13.1c1.9,3.6,5.2,5.4,9.8,5.4c2.7,0,5.2-0.8,7.5-2.4
		c2.3-1.6,4.4-3.6,6.2-6c1.8-2.4,3.4-5.1,4.8-8.1c1.3-3,2.5-5.9,3.4-8.8c0.4,3.4,0.8,6.7,1.2,10.1c0.4,3.4,1.2,6.4,2.3,9.1
		c1.1,2.7,2.6,4.9,4.6,6.6c2,1.7,4.7,2.5,8.1,2.5c3.3,0,6.6-1.4,9.9-4.1c3.3-2.7,6.2-6.1,8.7-10c1.6-2.5,3.1-5.2,4.4-8
		c1,5.3,2.8,9.7,5.4,13.3c4.2,5.9,10.5,8.8,18.8,8.8c4.5,0,9.1-1.6,13.9-4.8c4.8-3.2,9.2-7.3,13.2-12.1c2.7-3.2,5-6.7,7.1-10.4
		c0.3,1.7,0.6,3.5,1,5.2c1.1,4.4,2.9,8.3,5.2,11.7c2.3,3.4,5.1,6,8.4,7.9c3.3,1.9,7.1,2.9,11.5,2.9c3.2,0,5.9-0.5,8.1-1.4
		c2.2-0.9,4.1-2,5.7-3.3c1.4-1.2,2.2-2.9,2.5-5.1C521.2,418.7,520.5,417,518.9,415.7z M379.2,380.7c-0.6,2.8-1.5,5.8-2.5,9
		c-1,3.2-2.2,6.5-3.5,10c-1.3,3.5-2.7,6.5-4.2,9.3c-1.5,2.7-2.9,5-4.4,6.7c-1.5,1.8-2.8,2.6-4.1,2.6c-2,0-3.3-1.4-3.8-4.2
		c-0.5-2.8-0.5-6.3,0.1-10.5c0.6-4.2,1.6-8.7,3-13.7c1.4-5,3-9.5,4.7-13.7c1.7-4.2,3.5-7.7,5.3-10.5c1.8-2.8,3.4-4.2,4.8-4.2
		c1.7,0,2.9,0.6,3.7,1.9c0.8,1.3,1.4,2.7,1.6,4.3c0.3,1.6,0.4,3.8,0.4,6.5C380.2,375.7,379.9,377.9,379.2,380.7z M491.5,390.2
		c0-2.1,0.1-5,0.2-8.8c0.1-3.8,0.4-7.5,0.9-11.2c0.4-3.7,1.1-6.8,2-9.4c0.9-2.6,2.1-3.8,3.6-3.6c1.1,0.2,1.9,1.2,2.4,3
		c0.4,1.8,0.6,4.1,0.6,6.6c-0.1,2.6-0.4,5.4-0.9,8.4c-0.5,3-1.1,5.9-1.9,8.4c-0.8,2.6-1.6,4.7-2.6,6.4c-1,1.7-1.9,2.5-3,2.5
		c-0.6,0-1-0.3-1.1-0.8C491.5,391.2,491.5,390.7,491.5,390.2z"/>
</g>
</svg>
