<?xml version="1.0" encoding="utf-8"?>
<!-- Generator: Adobe Illustrator 21.0.0, SVG Export Plug-In . SVG Version: 6.00 Build 0)  -->
<svg version="1.1" id="Layer_1" xmlns="http://www.w3.org/2000/svg" xmlns:xlink="http://www.w3.org/1999/xlink" x="0px" y="0px"
	 viewBox="0 0 451 408.4" style="enable-background:new 0 0 451 408.4;" xml:space="preserve">
<style type="text/css">
	.st0{fill:none;}
	.st1{fill:#445863;}
	.st2{fill:#8AD0C2;}
	.st3{fill:#252626;}
</style>
<g>
	<path class="st0" d="M81.4,226.6c-1.4-5.4-2.1-11.2-2.1-17.1c0-1.8,0.1-3.8,0.2-5.9c0-0.2-0.1-0.4-0.1-0.7c-2.1,2.7-4.5,5.2-7,7.4
		c-2.8,2.4-5.8,4.3-9.1,5.7c0.7,1.2,1.3,2.4,2,3.6c2.2,3.9,4.5,7.8,7,11.6c2.2,3.4,4.5,6.4,6.8,8.9c1.6,1.7,3.1,3.1,4.6,4l5-1.8
		c0-0.1-0.1-0.1-0.1-0.2C85.2,237.7,82.9,232.5,81.4,226.6z"/>
	<path class="st0" d="M48.1,183.2c2.2-2.7,4.1-6.3,5.7-10.7c1.8-5,3.2-10.4,4.2-16.2c1-5.8,1.5-11.2,1.5-15.9c0-1.3-0.1-3.9-0.7-9
		c-0.4-3.8-1.1-7.7-2-11.5c-0.3,0.7-0.6,1.5-0.9,2.3c-1.9,4.9-3.7,10.5-5.4,16.6c-1.7,6.2-3.1,12.4-4.3,18.5c-1.1,6.1-2,11.8-2.6,17
		c-0.4,3.2-0.6,5.6-0.6,7.4c0.6,0.7,1.3,1.3,2,1.7c1.1,0.8,1.8,0.9,2.2,0.9C47.3,184.1,47.6,183.8,48.1,183.2z"/>
	<path class="st1" d="M263.1,20.6c8.6,6.3,16.4,13.4,23.3,21.4c16.3,19,27.1,40.9,33.7,64.9c6.8,24.8,7.3,50.1,5.2,75.6
		c-0.1,3.5-0.2,7.4-0.4,11.7c0.7-6.9,2.1-13.5,4.1-19.7c2.3-7.1,5.6-13.3,9.9-18.3c5.4-6.4,12.7-9.9,21.1-10.2
		c-1.2-19.2-5.2-37.9-12.7-56c-9.2-22.2-22.9-41.2-42.4-55.5c-10.9-8-22.8-14.3-36.5-16.2c-3-1.8-6.2-2.3-10.3-1.3
		C260.2,18.5,261.6,19.5,263.1,20.6L263.1,20.6z"/>
	<path class="st1" d="M332.8,251.4c-5.6,4.7-11.7,7.1-18.1,7.1c-2.1,0-4.1-0.2-6-0.6c-0.4,1-0.8,2.1-1.1,3.1
		c-15.4,40.9-39,76.8-67.4,109.7c-6.2,7.2-12.6,14.1-19.3,21.5c6.9,0,13.2-0.3,19.5,0.1c4.6,0.3,7.8-1.6,11-4.7
		c12.2-11.8,23.5-24.4,34.1-37.6c18.7-23.2,35.1-47.8,47.9-74.8c3.4-7.2,6.4-14.4,9.1-21.7c-2.6-1.5-4.7-3.3-6.5-5.1
		C335,249.5,333.9,250.5,332.8,251.4z"/>
	<path class="st2" d="M95.5,124.3c0.8,6.2,1.3,12.2,1.3,17.7c0,5.1-0.4,10.4-1,15.8c4.5-3.6,10-5.5,15.9-5.5c4.8,0,9.2,1.4,13,4.2
		c3.1,2.3,5.7,5.3,7.6,8.9c0,0.1,0,0.1,0.1,0.2c-2-5.1-3-11.1-3-17.7c0-7.6,1.6-15.6,4.7-23.8c3-7.8,6.9-15.1,11.7-21.6
		c4.9-6.6,10.5-12.3,16.7-16.7c7.3-5.3,15-8,22.7-8c3,0,6,0.4,8.9,1.1c3.7,1,7,2.6,9.9,5s5.2,5.4,7,8.9c1.8,3.7,2.8,8,2.8,12.7
		c0,2.7-0.4,5.8-1.2,10c-0.7,3.7-1.8,7.5-3,11.2c-1.3,3.9-2.9,7.5-4.6,10.6c-5,8.9-11.9,10.2-15.5,10.2c-3.4,0-6.7-1-9.9-2.9
		c-2.7-1.6-5.1-3.8-7-6.5c-0.3,1.9-0.5,3.7-0.5,5.4c0,4.2,0.9,5.8,1.2,6.2c1.5,2,3.3,3.6,5.7,4.9c3.2,1.8,6.8,3.5,10.7,4.9
		c5.3,2,10.3,4.5,14.9,7.5c0.5,0.3,1.1,0.7,1.6,1.1c0-1.9,0-3.8,0-5.6c0-7.3,3.3-13.3,9-16.4c3.1-1.7,6.4-2.6,9.9-2.6
		c1.2,0,2.4,0.1,3.6,0.3c4.2,0.7,8,2.5,11.3,5.4c1.6,1.3,2.9,2.8,3.9,4.5c1.1-0.1,2.2-0.2,3.4-0.2c6.9,0,12.9,3,17,8.5
		c1.5,2,2.7,4.3,3.8,6.7c0.4-0.5,0.8-1.1,1.3-1.6c7.3-9,15.7-10.9,21.5-10.9c2.6,0,5.1,0.4,7.5,1.3c2.2-0.7,4.5-1,6.9-1
		c2.3,0,4.4,0.3,6.4,0.8c-0.6-31-7.2-61.1-24.7-88.1c-19.9-30.8-45.5-52.5-84.8-53c-13.4-0.2-25.8,2-37.6,7.5
		C142.4,34,126,50.9,113.8,71.8c-9.1,15.5-15.1,31.9-18.4,48.9C95.1,121.7,95.3,123,95.5,124.3z"/>
	<path class="st2" d="M295.2,249.9c-0.4-0.4-0.7-0.9-1.1-1.3c-0.9,0.7-1.8,1.4-2.7,2.1c-4.5,3.1-9.5,4.7-14.8,4.7
		c-8.8,0-16.2-4-20.4-11.1c-2.5,2-5.3,3.5-8.4,4.4c0.2,7.9,0.6,15.9,1.2,23.7c0.8,12.6,1.3,25.4,1.3,38.2c0,10.4-5.5,15.2-8.7,17
		c-3.5,2-7.6,3-12,3c-1,0-2.1-0.1-3.4-0.2c-2.5-0.3-4.9-1-7.1-2.1c-2-1-3.7-2.3-5.3-3.9c-2.6-2.6-4.3-6-4.8-9.8v-0.3
		c-1.2-10.7-2-22.9-2.5-36.1c-0.4-10.5-0.6-21.3-0.7-32.3c-4.6,5.5-9.7,10.3-15.2,14c-7,4.8-13.9,7.2-20.6,7.2
		c-7.4,0-14.3-2.7-19.9-7.8c-2.4-2.2-5.1-5.6-7-10.4c-0.6,0.6-1.1,1.2-1.8,1.8l-0.2,0.2l-0.2,0.2c-2.5,2-5.4,3.8-8.8,5.2
		c-3.8,1.6-8.2,2.4-13.1,2.4c-2.4,0-4.7-0.2-7-0.6c1.1,2.8,2.2,5.5,3.4,8.3c9.3,21.8,21.2,42.2,34.5,61.9
		c14,20.8,30.1,39.8,47.4,57.8c2.7,2.8,4.4,2.8,7.3,0c18.4-17.8,34.8-37.3,49.6-58.2C271.2,303.5,285.3,277.7,295.2,249.9z"/>
	<path class="st2" d="M142.4,222.1c0.7-3.6,1.7-7.3,2.9-11.1c2.5-7.6,5.6-14.9,9.2-21.7c-1.7-1-3.4-2-5.1-3.1
		c-5.7-3.7-10.4-8.6-14.1-14.4c-0.6-0.9-1.1-1.9-1.6-2.9c0.7,1.9,1.3,3.9,1.7,6c0.6,3.1,0.9,6.3,0.9,9.5c0,3.7-0.4,7.8-1.3,12
		c-0.9,4.3-2.3,8.5-4.1,12.4c-2.1,4.5-4.7,8.3-7.8,11.4c-0.7,0.7-1.5,1.4-2.3,2c0.1,0.2,0.2,0.5,0.3,0.7c0.1,0.3,0.2,0.5,0.3,0.7
		c1.1-0.6,2.1-1.3,3.1-2.2l8-6.9l8.3,6.5C141.5,221.2,142,221.6,142.4,222.1z"/>
	<path class="st3" d="M58.1,191.3c3.1-3.8,5.7-8.6,7.9-14.4c2.1-5.8,3.7-11.9,4.8-18.5s1.6-12.6,1.6-18c0-2.4-0.3-5.9-0.8-10.4
		c-0.5-4.6-1.3-9.1-2.4-13.7c-1.1-4.6-2.5-8.5-4.3-11.9s-4-5-6.5-5c-2.7,0-5.2,1.7-7.7,5c-2.4,3.4-4.7,7.7-6.8,13.1
		c-2.1,5.4-4.1,11.3-5.8,17.9c-1.8,6.6-3.3,13-4.5,19.4s-2.1,12.4-2.8,17.9c-0.6,5.5-0.9,9.8-0.8,12.8c2,3.5,4.6,6.3,7.7,8.4
		s6.3,3.1,9.6,3.1C51.4,197.1,55,195.1,58.1,191.3z M44.9,183.3c-0.7-0.5-1.4-1.1-2-1.7c0.1-1.8,0.3-4.2,0.6-7.4
		c0.6-5.2,1.5-10.9,2.6-17c1.1-6.1,2.6-12.3,4.3-18.5c1.7-6.1,3.5-11.6,5.4-16.6c0.3-0.8,0.6-1.6,0.9-2.3c0.9,3.8,1.5,7.7,2,11.5
		c0.6,5.1,0.7,7.7,0.7,9c0,4.7-0.5,10.1-1.5,15.9c-1,5.7-2.4,11.2-4.2,16.2c-1.6,4.4-3.5,8-5.7,10.7c-0.5,0.6-0.8,0.9-1,1
		C46.8,184.2,46.1,184.1,44.9,183.3z"/>
	<path class="st2" d="M78,256c-2.9-1.6-5.7-3.9-8.5-7c-2.8-3-5.5-6.6-8.1-10.7s-5.1-8.2-7.4-12.3c-2.3-4.1-4.4-7.9-6.2-11.5
		c-1.9-3.6-3.4-6.5-4.5-8.8l3.6,0.2c6.6,0.5,12.3-1.3,16.9-5.3c4.7-4,8.5-9.2,11.4-15.5s5.1-13.4,6.5-21.1s2.1-15.1,2.1-22.1
		c0-5-0.4-10.3-1.2-16c-0.8-5.7-2.1-11-4-16s-4.5-9.1-7.8-12.4s-7.4-4.9-12.4-4.9c-4.5,0-8.3,1.4-11.5,4.2
		c-3.2,2.8-5.9,6.3-8.2,10.6c-2.3,4.3-4.2,8.9-5.7,14c-1.5,5.1-2.9,9.8-4,14.3l0.6-35.1c0-2.1-0.6-3.5-1.8-4.3
		c-1.2-0.8-2.7-1.2-4.3-1.3c-1.7-0.1-3.4,0.1-5.2,0.6c-1.8,0.5-3.2,1-4.2,1.4c0.3,2.2,0.4,6.4,0.3,12.4s-0.2,12.8-0.3,20.3
		c-0.1,7.5-0.3,15.3-0.5,23.3s-0.3,15.2-0.3,21.4v58c0,2.9-0.1,5.6-0.2,8.2s0,4.8,0.4,6.7c0.4,1.9,1.2,3.4,2.6,4.5
		c1.3,1,3.5,1.6,6.6,1.6c0.9,0,1.8-0.1,2.8-0.2c1-0.2,1.8-0.5,2.6-1c0.8-0.5,1.4-1.2,1.8-2c0.4-0.9,0.5-2,0.3-3.5
		c-0.3-6.4-0.4-12.8-0.5-19.2c-0.1-6.4-0.2-12.8-0.3-19.2c2.4,4.8,5.3,10.5,8.6,17.1c3.3,6.6,7,12.9,11,18.9s8.4,11.1,13,15.3
		c4.7,4.2,9.5,6.3,14.7,6.3c4.3,0,7-0.9,8-2.8c1-1.8,1.5-3.8,1.5-5.9C83.7,257.9,80.9,257.6,78,256z M37.7,193.9
		c-3.1-2.1-5.6-4.9-7.7-8.4c-0.1-3,0.1-7.3,0.8-12.8c0.6-5.5,1.6-11.5,2.8-17.9c1.2-6.4,2.7-12.9,4.5-19.4
		c1.8-6.6,3.7-12.5,5.8-17.9s4.4-9.7,6.8-13.1c2.4-3.4,5-5,7.7-5c2.6,0,4.7,1.7,6.5,5c1.8,3.4,3.2,7.3,4.3,11.9s1.9,9.1,2.4,13.7
		c0.5,4.6,0.8,8,0.8,10.4c0,5.4-0.5,11.4-1.6,18s-2.7,12.7-4.8,18.5s-4.7,10.6-7.9,14.4c-3.1,3.8-6.7,5.8-10.8,5.8
		C44,197.1,40.8,196,37.7,193.9z"/>
	<path class="st3" d="M107,207.9c1,0,2-0.8,3-2.5s1.8-3.8,2.6-6.4s1.4-5.4,1.9-8.4s0.8-5.9,0.9-8.4c0.1-2.6-0.1-4.8-0.6-6.6
		c-0.4-1.8-1.2-2.8-2.4-3c-1.5-0.2-2.7,1-3.6,3.6c-0.9,2.6-1.6,5.7-2,9.4c-0.4,3.7-0.7,7.4-0.9,11.2c-0.1,3.8-0.2,6.7-0.2,8.8
		c0,0.5,0.1,1,0.2,1.6C106,207.6,106.4,207.9,107,207.9z"/>
	<path class="st2" d="M127.1,244.5c2.2-0.9,4.1-2,5.6-3.3c1.4-1.2,2.2-2.9,2.5-5.1c0.3-2.1-0.4-3.9-2.1-5.1c-2,1.8-4.2,3.2-6.4,4.3
		c-2.2,1.1-4.6,1.7-7.2,1.7c-2.4,0-4.4-0.9-6-2.7c-1.6-1.8-2.9-3.9-4-6.3s-1.9-4.9-2.4-7.5s-0.8-4.8-1-6.6h1c2.7,0,5-1,7.1-3
		c2-2,3.8-4.5,5.2-7.6c1.4-3,2.5-6.3,3.2-9.6c0.7-3.4,1.1-6.5,1.1-9.4c0-2.4-0.2-4.7-0.7-7c-0.4-2.2-1.1-4.3-2.1-6.1
		c-1-1.8-2.2-3.3-3.7-4.5c-1.5-1.1-3.3-1.7-5.4-1.7c-4.1,0-7.4,1.6-10,4.8c-2.6,3.2-4.5,7.1-5.9,11.7s-2.4,9.4-2.9,14.6
		c-0.5,5.1-0.8,9.6-0.8,13.5c0,4.8,0.6,9.4,1.7,13.8c1.1,4.4,2.9,8.3,5.2,11.7c2.3,3.4,5.1,6,8.4,7.9c3.3,1.9,7.1,2.9,11.5,2.9
		C122.1,245.9,124.8,245.4,127.1,244.5z M105.9,196.7c0.1-3.8,0.4-7.5,0.9-11.2c0.4-3.7,1.1-6.8,2-9.4s2.1-3.8,3.6-3.6
		c1.1,0.2,1.9,1.2,2.4,3c0.4,1.8,0.6,4.1,0.6,6.6c-0.1,2.6-0.4,5.4-0.9,8.4s-1.2,5.9-1.9,8.4c-0.8,2.6-1.6,4.7-2.6,6.4
		c-1,1.7-1.9,2.5-3,2.5c-0.6,0-1-0.3-1.2-0.8c-0.1-0.6-0.2-1.1-0.2-1.6C105.7,203.4,105.8,200.5,105.9,196.7z"/>
	<path class="st3" d="M239.4,228.8c2.2,0,4-1.7,5.4-5.2c1.4-3.4,2.5-7.4,3.4-11.9c0.8-4.5,1.4-8.9,1.7-13.4c0.3-4.4,0.5-7.5,0.5-9.3
		c0-1.4,0-2.9,0-4.5c0-1.5-0.1-2.9-0.3-4.2c-0.2-1.3-0.6-2.4-1.1-3.2c-0.6-0.9-1.4-1.5-2.6-1.8c-1.8-0.3-3.4,0.6-5,2.9
		c-1.5,2.2-2.8,5.1-3.8,8.4c-1,3.4-1.8,6.9-2.4,10.5s-0.9,6.5-0.9,8.5c0,0.8,0,2.5,0.1,5.1s0.2,5.2,0.5,7.8c0.3,2.6,0.7,5,1.4,7.1
		C236.9,227.8,238,228.8,239.4,228.8z"/>
	<path class="st2" d="M169.9,254.3c4.1,0,8.5-1.6,13.3-4.9s9.2-7.5,13.3-12.5c4.1-5.1,7.5-10.5,10.1-16.5c2.7-5.9,4-11.5,4-16.6
		c0-6.9-1.3-12.3-3.8-16.4c-2.6-4-5.7-7.3-9.6-9.7c-3.8-2.5-8-4.6-12.4-6.3c-4.5-1.7-8.6-3.6-12.4-5.8c-3.8-2.2-7-4.9-9.6-8.3
		s-3.8-8-3.8-14c0-4.5,0.8-9.5,2.5-15c1.7-5.5,3.8-10.7,6.5-15.4c2.7-4.7,5.6-8.6,8.9-11.7c3.3-3,6.5-4.4,9.7-4.1
		c2.7,0.3,4.1,2,4.2,5.2c0.1,3.1-0.3,6.6-1.3,10.5c-1,3.8-2.3,7.5-3.7,10.9c-1.5,3.5-2.5,5.7-3,6.6c0.9,1.3,1.9,2.3,3.2,3
		c1.2,0.7,2.3,1.1,3.4,1.1c1.5,0,3-1.2,4.3-3.6s2.6-5.2,3.6-8.4c1.1-3.2,1.9-6.4,2.6-9.6c0.6-3.2,1-5.7,1-7.5c0-2.7-0.5-5.1-1.4-7
		c-1-1.9-2.2-3.5-3.6-4.7c-1.5-1.2-3.1-2-5-2.5s-3.7-0.7-5.7-0.7c-5,0-10,1.8-15.1,5.5s-9.7,8.3-13.9,14
		c-4.2,5.6-7.5,11.8-10.1,18.5c-2.6,6.7-3.8,13.2-3.8,19.2c0,7.1,1.4,12.8,4.1,17.1c2.7,4.3,6.2,7.9,10.3,10.6s8.6,5,13.4,6.7
		c4.8,1.8,9.3,3.6,13.4,5.4s7.6,4,10.3,6.5c2.7,2.5,4.1,5.9,4.1,10.2c0,3.5-0.8,7.4-2.4,11.5c-1.6,4.2-3.6,8.2-6,12.1
		s-5,7.5-7.9,10.6c-2.8,3.1-5.4,5.4-7.9,6.9c-2.4,1.4-4.4,1.8-6,1s-2.4-3.2-2.4-7.2c0-4.2,0.6-8.6,1.7-13.2
		c1.1-4.7,2.5-9.1,4.1-13.2c1.6-4.2,3.2-7.9,4.9-11.2c1.7-3.3,2.9-5.7,3.8-7.3c-0.8-0.8-1.7-1.6-2.9-2.3c-1.1-0.7-2.3-1.2-3.4-1.6
		c-1.2-0.3-2.3-0.3-3.4,0c-1.1,0.3-2.1,1.2-2.9,2.6c-3.8,6.9-7,14.2-9.6,22s-3.8,15-3.8,21.8c0,5.8,1.6,10.1,4.9,13.1
		C161.9,252.8,165.6,254.3,169.9,254.3z"/>
	<path class="st3" d="M295.6,178.8c-0.8-1.3-2.1-1.9-3.7-1.9c-1.4,0-3,1.4-4.8,4.2c-1.8,2.8-3.5,6.3-5.3,10.5
		c-1.7,4.2-3.3,8.7-4.7,13.7c-1.4,5-2.4,9.5-3,13.7s-0.6,7.7-0.1,10.5s1.8,4.2,3.8,4.2c1.3,0,2.6-0.9,4.1-2.6c1.5-1.8,2.9-4,4.4-6.7
		s2.9-5.8,4.2-9.3c1.3-3.4,2.5-6.8,3.5-10s1.8-6.2,2.5-9c0.6-2.8,1-4.9,1-6.4c0-2.7-0.1-4.9-0.4-6.5
		C297,181.5,296.4,180.1,295.6,178.8z"/>
	<path class="st2" d="M240,237c4,0,7.2-1.4,9.7-4.2c2.5-2.8,4.4-6.3,5.8-10.5s2.4-8.6,2.9-13.4c0.5-4.7,0.8-9,0.8-12.9
		c0-2.6-0.1-5.6-0.3-9c-0.2-3.4-0.7-6.7-1.5-9.7s-2-5.7-3.6-7.8c-1.6-2.2-3.8-3.2-6.6-3.2c-6.3,0-10.6,3.7-13,11.1
		c-0.1-1.8-0.2-3.1-0.2-4.1s0-1.8,0-2.6c0-0.8,0-1.7,0-2.6s0-2.3,0-4.1c0-1.9-0.8-3.6-2.4-4.9c-1.6-1.4-3.3-2.2-5.2-2.5
		c-1.9-0.3-3.6,0-5.2,0.8c-1.6,0.9-2.4,2.6-2.4,5.2c0,10.6-0.1,22.5-0.2,35.6c-0.1,13.2-0.2,26.5-0.1,40.1s0.3,26.8,0.8,39.8
		c0.4,13,1.2,24.7,2.4,35.1c0.1,1,0.5,1.8,1.2,2.4c0.6,0.6,1.3,1.2,2.1,1.6c0.8,0.4,1.6,0.6,2.4,0.7s1.6,0.1,2.2,0.1
		c2.2,0,4-0.4,5.6-1.3c1.5-0.9,2.3-2.9,2.3-5.9c0-12.5-0.4-24.9-1.2-37.3c-0.8-12.4-1.3-24.8-1.4-37.3c0.9,0.3,1.8,0.6,2.7,0.7
		C238.2,236.9,239.1,237,240,237z M234.8,218.6c-0.3-2.6-0.4-5.3-0.5-7.8c-0.1-2.6-0.1-4.2-0.1-5.1c0-2.1,0.3-4.9,0.9-8.5
		s1.4-7.1,2.4-10.5s2.3-6.2,3.8-8.4c1.5-2.2,3.2-3.2,5-2.9c1.1,0.3,2,0.9,2.6,1.8s1,2,1.1,3.2c0.2,1.3,0.3,2.7,0.3,4.2s0,3,0,4.5
		c0,1.8-0.2,4.9-0.5,9.3s-0.9,8.9-1.7,13.4c-0.8,4.5-1.9,8.5-3.4,11.9c-1.4,3.5-3.2,5.2-5.4,5.2c-1.4,0-2.5-1-3.2-3.1
		C235.5,223.6,235,221.2,234.8,218.6z"/>
	<path class="st3" d="M444.1,220.8l-8.3-6.5l-8,6.9c-1,0.9-2.1,1.6-3.1,2.2c-0.1-0.2-0.2-0.5-0.4-0.7c-0.1-0.2-0.2-0.5-0.3-0.7
		c0.8-0.6,1.5-1.3,2.3-2c3.1-3.1,5.8-6.9,7.8-11.4c1.8-3.9,3.2-8.1,4.1-12.4c0.9-4.2,1.3-8.3,1.3-12c0-3.2-0.3-6.4-0.9-9.5
		c-0.7-3.4-1.8-6.6-3.3-9.5c-1.9-3.6-4.4-6.6-7.6-8.9c-3.7-2.7-8.2-4.2-13-4.2c-8,0-15.1,3.4-20,9.7c-3.6,4.5-6.3,9.8-8.2,15.9
		c-1.7,5.4-2.8,11.1-3.4,17.1c-0.1,0.9-0.2,1.7-0.2,2.6c-2,4.1-4.4,8.4-7.2,12.8c-1.9,3-4,5.8-6.3,8.2c1.6-7.3,2.9-14.7,3.9-22.2
		c5.6-1.8,9.9-6.2,11.4-12.1c0.8-3.3,1.3-6.9,1.3-10.6c0-8-2.2-14.5-6.4-19.4c-1.1-1.3-2.3-2.4-3.6-3.4c-1.1-32.2-9-62.7-26.8-90.8
		C332.2,33,309.4,13.3,278.4,4c-15.5-4.6-31.3-3.6-49-3.7c-5.1,0-12.1,0.3-19.1-0.1c-36.1-1.9-66.1,11.3-90.5,37.3
		C103.6,54.8,92.4,74,85.2,94.9c-1.6-2.3-3.3-4.4-5.2-6.3c-5.7-5.7-13.1-8.7-21.5-8.7c-7.6,0-14.5,2.6-20,7.4
		c-0.3,0.2-0.5,0.5-0.8,0.7c-1-1.1-2-1.8-2.9-2.4c-3.2-2.1-6.8-3.2-10.8-3.4c-0.4,0-0.9,0-1.3,0c-2.6,0-5.2,0.4-7.8,1.1
		c-2.5,0.7-4.6,1.4-6.4,2.2l-8.3,3.9l1,9.2c0.1,0.8,0.3,3.4,0.2,10.8c-0.1,6-0.2,12.7-0.3,20.2c-0.1,7.5-0.3,15.3-0.5,23.2
		c-0.2,8.1-0.3,15.4-0.3,21.7v58c0,2.6-0.1,5.2-0.2,7.5c-0.2,3.7,0,6.9,0.6,9.9c1,5,3.5,9.1,7.3,12.1c3.7,2.9,8.4,4.3,14.5,4.3
		c1.6,0,3.2-0.1,4.9-0.4c2.6-0.4,5.1-1.4,7.3-2.7c2.7-1.7,4.9-4.2,6.5-7.2c0-0.1,0.1-0.1,0.1-0.2c3.7,5,7.8,9.5,12,13.3
		c7.1,6.3,14.9,9.5,23.2,9.5c11.6,0,16.9-5.1,19.3-9.4c0.6-1,1-2,1.4-3.1c21.8,53.8,55.1,99.6,97.2,139.5c2.1,2,4.4,2.9,7.2,2.8
		c12.8-0.1,25.7-0.7,38.5-0.1c9.7,0.4,16.7-2.5,23.6-9.6c28.2-28.8,53.5-59.8,73.2-95c8.3-14.7,15.2-29.8,20.9-45.3
		c1.2,0.1,2.4,0.2,3.7,0.2c7,0,14.1-2.4,21-7c3.4-2.3,6.6-4.9,9.7-7.9c3.2,4.3,7.1,7.9,11.6,10.5c5.3,3.1,11.3,4.6,17.9,4.6
		c4.9,0,9.3-0.8,13.1-2.4c3.4-1.4,6.3-3.1,8.8-5.2l0.2-0.2l0.2-0.2c3.8-3.3,6.1-7.9,6.7-13.2C451.9,231,449.4,224.9,444.1,220.8z
		 M268.3,18.3c13.7,1.9,25.6,8.2,36.5,16.2C324.4,48.8,338,67.8,347.2,90c7.5,18.1,11.6,36.8,12.7,56c-8.4,0.3-15.7,3.8-21.1,10.2
		c-4.3,5-7.6,11.2-9.9,18.3c-2,6.2-3.4,12.8-4.1,19.7c0.2-4.3,0.4-8.2,0.4-11.7c2.1-25.4,1.6-50.7-5.2-75.6
		c-6.6-24-17.4-45.9-33.7-64.9c-7-8.1-14.7-15.2-23.3-21.4l0,0c-1.5-1-3-2-5.1-3.5C262.1,16.1,265.3,16.5,268.3,18.3z M164.1,23.5
		c11.8-5.5,24.3-7.6,37.6-7.5c39.4,0.5,64.9,22.1,84.8,53c17.4,27,24.1,57,24.7,88.1c-2-0.5-4.1-0.8-6.4-0.8c-2.4,0-4.7,0.4-6.9,1
		c-2.4-0.9-4.9-1.3-7.5-1.3c-5.8,0-14.2,1.9-21.5,10.9c-0.4,0.5-0.8,1.1-1.3,1.6c-1-2.4-2.3-4.7-3.8-6.7c-4-5.5-10.1-8.5-17-8.5
		c-1.1,0-2.3,0.1-3.4,0.2c-1-1.6-2.4-3.1-3.9-4.5c-3.4-2.9-7.2-4.7-11.3-5.4c-1.2-0.2-2.4-0.3-3.6-0.3c-3.5,0-6.8,0.9-9.9,2.6
		c-5.7,3.2-9,9.2-9,16.4c0,1.8,0,3.7,0,5.6c-0.5-0.4-1-0.7-1.6-1.1c-4.6-3-9.6-5.5-14.9-7.5c-3.8-1.4-7.4-3.1-10.7-4.9
		c-2.3-1.3-4.2-2.9-5.7-4.9c-0.3-0.4-1.2-1.9-1.2-6.2c0-1.6,0.2-3.4,0.5-5.4c1.9,2.7,4.2,4.8,7,6.5c3.2,1.9,6.6,2.9,9.9,2.9
		c3.7,0,10.6-1.3,15.5-10.2c1.7-3.1,3.3-6.6,4.6-10.6c1.3-3.7,2.3-7.5,3-11.2c0.8-4.1,1.2-7.3,1.2-10c0-4.7-0.9-9-2.8-12.7
		c-1.8-3.6-4.1-6.5-7-8.9s-6.2-4.1-9.9-5c-2.9-0.8-5.9-1.1-8.9-1.1c-7.7,0-15.3,2.7-22.7,8c-6.2,4.5-11.8,10.1-16.7,16.7
		c-4.8,6.5-8.8,13.8-11.7,21.6c-3.1,8.2-4.7,16.2-4.7,23.8c0,6.6,1,12.5,3,17.7c0-0.1,0-0.1-0.1-0.2c-1.9-3.6-4.4-6.6-7.6-8.9
		c-3.7-2.7-8.2-4.2-13-4.2c-6,0-11.5,1.9-15.9,5.5c0.7-5.4,1-10.7,1-15.8c0-5.5-0.4-11.5-1.3-17.7c-0.2-1.3-0.4-2.5-0.6-3.8
		c3.4-17,9.4-33.4,18.4-48.9C125.5,50.7,141.9,33.8,164.1,23.5z M236,273.3c0.8,12.3,1.2,24.8,1.2,37.3c0,3-0.8,5-2.3,5.9
		s-3.4,1.3-5.6,1.3c-0.6,0-1.4,0-2.2-0.1c-0.8-0.1-1.6-0.3-2.4-0.7c-0.8-0.4-1.5-0.9-2.1-1.6c-0.6-0.6-1-1.4-1.2-2.4
		c-1.1-10.4-1.9-22.1-2.4-35.1c-0.4-13-0.7-26.3-0.8-39.8c-0.1-13.6,0-26.9,0.1-40.1c0.1-13.1,0.2-25,0.2-35.6
		c0-2.6,0.8-4.3,2.4-5.2c1.6-0.9,3.3-1.2,5.2-0.8c1.8,0.3,3.6,1.2,5.2,2.5c1.6,1.4,2.4,3,2.4,4.9c0,1.8,0,3.1,0,4.1s0,1.8,0,2.6
		c0,0.8,0,1.7,0,2.6s0.1,2.3,0.2,4.1c2.4-7.4,6.8-11.1,13-11.1c2.8,0,5,1.1,6.6,3.2c1.6,2.2,2.8,4.8,3.6,7.8c0.8,3,1.3,6.3,1.5,9.7
		c0.2,3.5,0.3,6.5,0.3,9c0,3.8-0.3,8.1-0.8,12.9c-0.5,4.7-1.5,9.2-2.9,13.4c-1.4,4.2-3.4,7.7-5.8,10.5c-2.5,2.8-5.7,4.2-9.7,4.2
		c-0.9,0-1.8-0.1-2.7-0.2c-0.9-0.2-1.8-0.4-2.7-0.7C234.7,248.5,235.2,261,236,273.3z M99,235.1c-2.3-3.4-4-7.3-5.2-11.7
		c-1.1-4.4-1.7-9-1.7-13.8c0-3.8,0.3-8.3,0.8-13.5c0.5-5.1,1.5-10,2.9-14.6s3.4-8.5,5.9-11.7c2.6-3.2,5.9-4.8,10-4.8
		c2,0,3.8,0.6,5.4,1.7c1.5,1.1,2.8,2.6,3.7,4.5c1,1.8,1.7,3.9,2.1,6.1c0.4,2.2,0.7,4.6,0.7,7c0,2.9-0.4,6-1.1,9.4
		c-0.7,3.4-1.8,6.6-3.2,9.6s-3.1,5.6-5.2,7.6c-2,2-4.4,3-7.1,3h-1c0.1,1.8,0.4,4,1,6.6c0.5,2.6,1.3,5.1,2.4,7.5
		c1.1,2.4,2.4,4.5,4,6.3s3.6,2.7,6,2.7c2.6,0,4.9-0.6,7.2-1.7c2.2-1.1,4.4-2.6,6.4-4.3c1.7,1.3,2.4,3,2.1,5.1
		c-0.3,2.1-1.1,3.8-2.5,5.1c-1.5,1.2-3.4,2.3-5.6,3.3c-2.2,0.9-5,1.4-8.1,1.4c-4.3,0-8.2-1-11.5-2.9
		C104.1,241.1,101.3,238.4,99,235.1z M132.7,214.4l-8,6.9c-1,0.9-2.1,1.6-3.1,2.2c-0.1-0.2-0.2-0.5-0.3-0.7s-0.2-0.5-0.3-0.7
		c0.8-0.6,1.5-1.3,2.3-2c3.1-3.1,5.8-6.9,7.8-11.4c1.8-3.9,3.2-8.1,4.1-12.4c0.9-4.2,1.3-8.3,1.3-12c0-3.2-0.3-6.4-0.9-9.5
		c-0.4-2.1-1-4.1-1.7-6c0.5,1,1,2,1.6,2.9c3.7,5.9,8.5,10.7,14.1,14.4c1.7,1.1,3.4,2.1,5.1,3.1c-3.6,6.9-6.7,14.2-9.2,21.7
		c-1.2,3.8-2.2,7.5-2.9,11.1c-0.5-0.4-0.9-0.9-1.5-1.3L132.7,214.4z M157.6,215c2.6-7.8,5.7-15.1,9.6-22c0.8-1.4,1.7-2.3,2.9-2.6
		c1.1-0.3,2.3-0.3,3.4,0s2.3,0.8,3.4,1.6c1.1,0.7,2.1,1.5,2.9,2.3c-0.9,1.6-2.2,4.1-3.8,7.3c-1.7,3.3-3.3,7-4.9,11.2
		c-1.6,4.2-3,8.6-4.1,13.2c-1.1,4.7-1.7,9.1-1.7,13.2c0,4,0.8,6.4,2.4,7.2c1.6,0.8,3.6,0.5,6-1c2.4-1.4,5-3.7,7.9-6.9
		c2.8-3.1,5.4-6.7,7.9-10.6c2.4-3.9,4.4-8,6-12.1c1.6-4.2,2.4-8,2.4-11.5c0-4.3-1.4-7.7-4.1-10.2s-6.2-4.6-10.3-6.5
		c-4.2-1.8-8.6-3.6-13.4-5.4c-4.8-1.8-9.3-4-13.4-6.7c-4.2-2.7-7.6-6.3-10.3-10.6c-2.7-4.3-4.1-10-4.1-17.1c0-6.1,1.3-12.5,3.8-19.2
		c2.6-6.7,5.9-12.9,10.1-18.5c4.1-5.6,8.8-10.3,13.9-14c5.1-3.7,10.2-5.5,15.1-5.5c1.9,0,3.8,0.2,5.7,0.7c1.8,0.5,3.5,1.3,5,2.5
		s2.7,2.8,3.6,4.7c1,1.9,1.4,4.3,1.4,7c0,1.8-0.3,4.3-1,7.5c-0.6,3.2-1.5,6.4-2.6,9.6s-2.3,6-3.6,8.4c-1.3,2.4-2.8,3.6-4.3,3.6
		c-1,0-2.1-0.4-3.4-1.1c-1.2-0.7-2.3-1.7-3.2-3c0.5-1,1.5-3.2,3-6.6s2.7-7.1,3.7-10.9s1.5-7.3,1.3-10.5c-0.1-3.1-1.5-4.8-4.2-5.2
		c-3.2-0.3-6.4,1-9.7,4.1c-3.3,3-6.2,6.9-8.9,11.7c-2.7,4.7-4.9,9.9-6.5,15.4c-1.7,5.5-2.5,10.5-2.5,15c0,5.9,1.3,10.6,3.8,14
		c2.6,3.4,5.7,6.1,9.6,8.3c3.8,2.2,8,4.1,12.4,5.8c4.5,1.7,8.6,3.8,12.4,6.3s7,5.7,9.6,9.7s3.8,9.5,3.8,16.4c0,5.1-1.3,10.7-4,16.6
		s-6.1,11.4-10.1,16.5c-4.1,5.1-8.5,9.2-13.3,12.5s-9.2,4.9-13.3,4.9c-4.2,0-7.9-1.5-11.2-4.5s-4.9-7.3-4.9-13.1
		C153.8,230,155,222.8,157.6,215z M84.8,262.9c-1,1.8-3.7,2.8-8,2.8c-5.1,0-10-2.1-14.7-6.3c-4.7-4.2-9-9.3-13-15.3
		s-7.7-12.3-11-18.9s-6.2-12.3-8.6-17.1c0.1,6.4,0.2,12.8,0.3,19.2c0.1,6.4,0.2,12.8,0.5,19.2c0.3,1.4,0.2,2.6-0.3,3.5
		c-0.4,0.9-1.1,1.6-1.8,2c-0.8,0.5-1.6,0.8-2.6,1s-1.9,0.2-2.8,0.2c-3.1,0-5.3-0.5-6.6-1.6c-1.3-1-2.2-2.5-2.6-4.5
		c-0.4-1.9-0.5-4.2-0.4-6.7c0.1-2.6,0.2-5.3,0.2-8.2v-58c0-6.3,0.1-13.4,0.3-21.4c0.2-8,0.4-15.8,0.5-23.3
		c0.1-7.5,0.2-14.3,0.3-20.3c0.1-6,0-10.1-0.3-12.4c1-0.5,2.4-1,4.2-1.4c1.8-0.5,3.5-0.7,5.2-0.6s3.1,0.5,4.3,1.3
		c1.2,0.8,1.8,2.2,1.8,4.3l-0.6,35.1c1.1-4.5,2.5-9.3,4-14.3c1.5-5.1,3.4-9.7,5.7-14c2.3-4.2,5-7.8,8.2-10.6c3.2-2.8,7-4.2,11.5-4.2
		c5,0,9.1,1.6,12.4,4.9c3.3,3.3,5.8,7.4,7.8,12.4c1.9,5,3.3,10.3,4,16c0.8,5.7,1.2,11,1.2,16c0,7.1-0.7,14.4-2.1,22.1
		c-1.4,7.7-3.6,14.7-6.5,21.1c-2.9,6.3-6.7,11.5-11.4,15.5s-10.3,5.8-16.9,5.3l-3.6-0.2c1.1,2.2,2.6,5.2,4.5,8.8
		c1.8,3.6,3.9,7.5,6.2,11.5c2.3,4.1,4.8,8.2,7.4,12.3c2.6,4.1,5.3,7.7,8.1,10.7s5.6,5.4,8.5,7s5.7,1.9,8.3,1
		C86.4,259,85.8,261,84.8,262.9z M83.5,244.3c-1.5-0.9-3-2.3-4.6-4c-2.3-2.5-4.6-5.5-6.8-8.9c-2.5-3.8-4.8-7.8-7-11.6
		c-0.7-1.2-1.4-2.4-2-3.6c3.2-1.4,6.3-3.3,9.1-5.7c2.6-2.2,4.9-4.7,7-7.4c0,0.2,0.1,0.4,0.1,0.7c-0.1,2.1-0.2,4-0.2,5.9
		c0,5.9,0.7,11.6,2.1,17.1c1.5,5.8,3.9,11.1,7,15.7c0,0.1,0.1,0.1,0.1,0.2L83.5,244.3z M204.5,386c-2.9,2.8-4.6,2.8-7.3,0
		c-17.4-18-33.4-37-47.4-57.8c-13.3-19.7-25.1-40-34.5-61.9c-1.2-2.7-2.3-5.5-3.4-8.3c2.2,0.4,4.6,0.6,7,0.6c4.9,0,9.3-0.8,13.1-2.4
		c3.4-1.4,6.3-3.1,8.8-5.2l0.2-0.2l0.2-0.2c0.6-0.6,1.2-1.2,1.8-1.8c1.8,4.8,4.5,8.1,7,10.4c5.6,5.1,12.5,7.8,19.9,7.8
		c6.7,0,13.6-2.4,20.6-7.2c5.4-3.7,10.5-8.4,15.2-14c0.1,11,0.3,21.8,0.7,32.3c0.5,13.2,1.3,25.4,2.5,36.1v0.3
		c0.5,3.8,2.2,7.2,4.8,9.8c1.6,1.6,3.3,2.9,5.3,3.9c2.2,1.2,4.6,1.9,7.1,2.1c1.3,0.1,2.4,0.2,3.4,0.2c4.4,0,8.4-1,12-3
		c3.3-1.9,8.7-6.6,8.7-17c0-12.7-0.4-25.6-1.3-38.2c-0.5-7.8-0.9-15.8-1.2-23.7c3.1-0.9,5.9-2.4,8.4-4.4c4.3,7,11.6,11.1,20.4,11.1
		c5.4,0,10.3-1.6,14.8-4.7c0.9-0.6,1.8-1.3,2.7-2.1c0.4,0.5,0.7,0.9,1.1,1.3c-9.9,27.8-23.9,53.5-41.1,77.9
		C239.4,348.7,222.9,368.2,204.5,386z M333.4,275.3c-12.7,27.1-29.2,51.6-47.9,74.8c-10.6,13.2-21.9,25.8-34.1,37.6
		c-3.2,3.1-6.3,4.9-11,4.7c-6.3-0.4-12.7-0.1-19.5-0.1c6.6-7.4,13.1-14.3,19.3-21.5c28.4-32.9,52-68.9,67.4-109.7
		c0.4-1,0.8-2.1,1.1-3.1c1.9,0.4,3.9,0.6,6,0.6c6.4,0,12.5-2.4,18.1-7.1c1.1-0.9,2.2-1.9,3.2-3c1.8,1.8,3.9,3.6,6.5,5.1
		C339.8,260.9,336.7,268.1,333.4,275.3z M438.4,236.1c-0.3,2.1-1.1,3.8-2.5,5.1c-1.5,1.2-3.4,2.3-5.7,3.3c-2.2,0.9-4.9,1.4-8.1,1.4
		c-4.3,0-8.2-1-11.5-2.9s-6.1-4.6-8.4-7.9c-2.3-3.4-4-7.3-5.2-11.7c-0.4-1.7-0.8-3.4-1-5.2c-2.1,3.7-4.4,7.2-7.1,10.4
		c-4,4.9-8.4,8.9-13.2,12.1c-4.8,3.2-9.4,4.8-13.9,4.8c-8.3,0-14.6-2.9-18.8-8.8c-2.6-3.6-4.4-8.1-5.4-13.3c-1.3,2.8-2.7,5.5-4.4,8
		c-2.6,3.9-5.5,7.3-8.7,10c-3.3,2.7-6.5,4.1-9.9,4.1s-6.2-0.8-8.1-2.5c-2-1.7-3.5-3.9-4.6-6.6s-1.9-5.8-2.3-9.1
		c-0.4-3.4-0.9-6.7-1.2-10.1c-0.9,2.9-2,5.8-3.4,8.8c-1.3,3-2.9,5.7-4.8,8.1s-3.9,4.4-6.2,6c-2.3,1.6-4.8,2.4-7.5,2.4
		c-4.6,0-7.9-1.8-9.8-5.4s-2.9-8-2.9-13.1c0-4.5,0.6-9.9,1.7-16.1c1.1-6.3,2.8-12.3,5.1-18c2.2-5.8,5-10.7,8.3-14.8
		c3.3-4.1,7.1-6.1,11.5-6.1c1.4,0,2.7,0.3,3.9,0.8c1.2,0.6,2.5,1.2,3.7,2c1.9-1.8,4.1-2.6,6.7-2.6c2.3,0,4.1,0.4,5.6,1.3
		c1.4,0.9,2.1,3,2.1,6.4c0,4.7-0.2,10.2-0.5,16.7s-0.5,12.8-0.5,18.9s0.4,11.3,1.1,15.5c0.8,4.3,2.3,6.4,4.6,6.4c1.3,0,2.9-1,4.8-3
		s3.9-4.6,5.8-7.7c2-3.1,3.8-6.5,5.6-10c1.3-2.7,2.4-5.4,3.4-7.9c0.2-3,0.4-6.2,0.8-9.7c0.6-6.3,1.8-12.1,3.6-17.7
		c1.8-5.5,4.3-10.2,7.5-14s7.3-5.7,12.4-5.7c3.7,0,6.6,1.2,8.8,3.7c2.2,2.5,3.3,6.1,3.3,10.9c0,2.7-0.3,5.2-0.9,7.5
		c-0.6,2.2-2.2,3.4-4.9,3.4c-0.8,0-1.8-0.2-3.2-0.6c-1.3-0.4-2-1.2-2-2.5c0-1.1,0.1-2.5,0.4-4.1s0.4-3.1,0.5-4.6
		c0.1-1.4,0-2.7-0.3-3.7s-0.9-1.6-1.9-1.6c-1.8,0-3.3,1.9-4.6,5.6c-1.3,3.8-2.3,8.2-3.1,13.2c-0.8,5-1.3,10.1-1.7,15.2
		c-0.4,5.1-0.6,8.9-0.6,11.5c0,2.4,0.2,5,0.5,7.8s0.9,5.4,1.8,7.8s2.1,4.4,3.6,6s3.5,2.4,5.9,2.4c4.2,0,8.4-2,12.5-5.9
		s7.9-8.5,11.2-13.7c3.3-5.2,6.1-10.3,8.4-15.2c0.2-0.4,0.4-0.8,0.6-1.2c0.1-1.5,0.2-3.1,0.4-4.7c0.5-5.1,1.5-10,2.9-14.6
		s3.4-8.5,5.9-11.7c2.6-3.2,5.9-4.8,10-4.8c2,0,3.8,0.6,5.4,1.7c1.5,1.1,2.8,2.6,3.7,4.5c1,1.8,1.7,3.9,2.1,6.1s0.7,4.6,0.7,7
		c0,2.9-0.4,6-1.1,9.4s-1.8,6.6-3.2,9.6c-1.4,3-3.1,5.6-5.2,7.6c-2,2-4.4,3-7.1,3h-1c0.1,1.8,0.4,4,1,6.6c0.5,2.6,1.3,5.1,2.4,7.5
		s2.4,4.5,4,6.3s3.6,2.7,6,2.7c2.6,0,4.9-0.6,7.2-1.7c2.2-1.1,4.4-2.6,6.4-4.3C437.9,232.3,438.6,234,438.4,236.1z"/>
	<path class="st3" d="M410.2,207.9c1,0,2-0.8,3-2.5s1.8-3.8,2.6-6.4c0.8-2.6,1.4-5.4,1.9-8.4s0.8-5.9,0.9-8.4
		c0.1-2.6-0.1-4.8-0.6-6.6c-0.4-1.8-1.2-2.8-2.4-3c-1.5-0.2-2.7,1-3.6,3.6s-1.6,5.7-2,9.4c-0.4,3.7-0.7,7.4-0.9,11.2
		c-0.1,3.8-0.2,6.7-0.2,8.8c0,0.5,0.1,1,0.2,1.6C409.2,207.6,409.6,207.9,410.2,207.9z"/>
	<path class="st2" d="M436.3,231c-2,1.8-4.2,3.2-6.4,4.3c-2.2,1.1-4.6,1.7-7.2,1.7c-2.4,0-4.4-0.9-6-2.7c-1.6-1.8-2.9-3.9-4-6.3
		s-1.9-4.9-2.4-7.5s-0.8-4.8-1-6.6h1c2.7,0,5-1,7.1-3c2-2,3.8-4.5,5.2-7.6c1.4-3,2.5-6.3,3.2-9.6c0.7-3.4,1.1-6.5,1.1-9.4
		c0-2.4-0.2-4.7-0.7-7c-0.4-2.2-1.1-4.3-2.1-6.1c-1-1.8-2.2-3.3-3.7-4.5c-1.5-1.1-3.3-1.7-5.4-1.7c-4.1,0-7.4,1.6-10,4.8
		c-2.6,3.2-4.5,7.1-5.9,11.7s-2.4,9.4-2.9,14.6c-0.2,1.6-0.3,3.2-0.4,4.7c-0.2,0.4-0.4,0.8-0.6,1.2c-2.3,4.9-5.1,9.9-8.4,15.2
		c-3.3,5.2-7.1,9.8-11.2,13.7c-4.2,3.9-8.3,5.9-12.5,5.9c-2.4,0-4.4-0.8-5.9-2.4s-2.7-3.6-3.6-6s-1.5-5-1.8-7.8s-0.5-5.4-0.5-7.8
		c0-2.6,0.2-6.4,0.6-11.5s1-10.2,1.7-15.2c0.8-5,1.8-9.4,3.1-13.2c1.3-3.8,2.8-5.6,4.6-5.6c1,0,1.7,0.5,1.9,1.6
		c0.3,1,0.4,2.3,0.3,3.7c-0.1,1.4-0.2,3-0.5,4.6s-0.4,3-0.4,4.1c0,1.3,0.7,2.1,2,2.5s2.4,0.6,3.2,0.6c2.7,0,4.3-1.1,4.9-3.4
		c0.6-2.2,0.9-4.7,0.9-7.5c0-4.8-1.1-8.5-3.3-10.9c-2.2-2.5-5.1-3.7-8.8-3.7c-5.1,0-9.3,1.9-12.4,5.7c-3.2,3.8-5.7,8.4-7.5,14
		c-1.8,5.5-3,11.4-3.6,17.7c-0.4,3.4-0.6,6.6-0.8,9.7c-0.9,2.5-2,5.2-3.4,7.9c-1.7,3.5-3.6,6.9-5.6,10s-3.9,5.7-5.8,7.7
		s-3.5,3-4.8,3c-2.3,0-3.8-2.1-4.6-6.4c-0.8-4.2-1.1-9.4-1.1-15.5s0.2-12.4,0.5-18.9s0.5-12.1,0.5-16.7c0-3.4-0.7-5.5-2.1-6.4
		s-3.3-1.3-5.6-1.3c-2.6,0-4.8,0.9-6.7,2.6c-1.3-0.8-2.5-1.5-3.7-2c-1.2-0.6-2.5-0.8-3.9-0.8c-4.3,0-8.2,2-11.5,6.1s-6.1,9-8.3,14.8
		c-2.2,5.8-3.9,11.8-5.1,18c-1.1,6.3-1.7,11.6-1.7,16.1c0,5.1,1,9.5,2.9,13.1s5.2,5.4,9.8,5.4c2.7,0,5.2-0.8,7.5-2.4s4.4-3.6,6.2-6
		c1.8-2.4,3.4-5.1,4.8-8.1c1.3-3,2.5-5.9,3.4-8.8c0.4,3.4,0.8,6.7,1.2,10.1c0.4,3.4,1.2,6.4,2.3,9.1c1.1,2.7,2.6,4.9,4.6,6.6
		s4.7,2.5,8.1,2.5c3.3,0,6.6-1.4,9.9-4.1s6.2-6.1,8.7-10c1.6-2.5,3.1-5.2,4.4-8c1,5.3,2.8,9.7,5.4,13.3c4.2,5.9,10.5,8.8,18.8,8.8
		c4.5,0,9.1-1.6,13.9-4.8c4.8-3.2,9.2-7.3,13.2-12.1c2.7-3.2,5-6.7,7.1-10.4c0.3,1.7,0.6,3.5,1,5.2c1.1,4.4,2.9,8.3,5.2,11.7
		c2.3,3.4,5.1,6,8.4,7.9s7.1,2.9,11.5,2.9c3.2,0,5.9-0.5,8.1-1.4s4.1-2,5.7-3.3c1.4-1.2,2.2-2.9,2.5-5.1
		C438.6,234,437.9,232.3,436.3,231z M296.6,196c-0.6,2.8-1.5,5.8-2.5,9s-2.2,6.5-3.5,10s-2.7,6.5-4.2,9.3c-1.5,2.7-2.9,5-4.4,6.7
		c-1.5,1.8-2.8,2.6-4.1,2.6c-2,0-3.3-1.4-3.8-4.2c-0.5-2.8-0.5-6.3,0.1-10.5s1.6-8.7,3-13.7s3-9.5,4.7-13.7s3.5-7.7,5.3-10.5
		s3.4-4.2,4.8-4.2c1.7,0,2.9,0.6,3.7,1.9c0.8,1.3,1.4,2.7,1.6,4.3c0.3,1.6,0.4,3.8,0.4,6.5C297.6,191,297.3,193.2,296.6,196z
		 M408.9,205.5c0-2.1,0.1-5,0.2-8.8s0.4-7.5,0.9-11.2c0.4-3.7,1.1-6.8,2-9.4s2.1-3.8,3.6-3.6c1.1,0.2,1.9,1.2,2.4,3
		c0.4,1.8,0.6,4.1,0.6,6.6c-0.1,2.6-0.4,5.4-0.9,8.4s-1.1,5.9-1.9,8.4c-0.8,2.6-1.6,4.7-2.6,6.4c-1,1.7-1.9,2.5-3,2.5
		c-0.6,0-1-0.3-1.1-0.8C408.9,206.5,408.9,206,408.9,205.5z"/>
</g>
</svg>
