<?xml version="1.0" encoding="utf-8"?>
<!-- Generator: Adobe Illustrator 21.0.0, SVG Export Plug-In . SVG Version: 6.00 Build 0)  -->
<svg version="1.1" id="Layer_1" xmlns="http://www.w3.org/2000/svg" xmlns:xlink="http://www.w3.org/1999/xlink" x="0px" y="0px"
	 viewBox="0 0 267.1 150.1" style="enable-background:new 0 0 267.1 150.1;" xml:space="preserve">
<style type="text/css">
	.st0{fill:none;}
	.st1{fill:#252626;}
	.st2{fill:#8AD0C2;}
</style>
<g>
	<path class="st0" d="M42.6,78.7c-1.7,1.4-3.4,2.5-5.4,3.4c0.4,0.7,0.8,1.4,1.2,2.2c1.3,2.3,2.7,4.6,4.1,6.9c1.3,2,2.7,3.8,4,5.3
		c0.9,1,1.9,1.8,2.7,2.4l3-1.1l-0.1-0.1c-1.9-2.7-3.2-5.8-4.1-9.3c-0.8-3.2-1.3-6.6-1.3-10.1c0-1.2,0-2.6,0.1-4
		C45.6,75.9,44.2,77.4,42.6,78.7z"/>
	<path class="st0" d="M88.4,64.4c-3.4-2.2-6.2-5.1-8.4-8.6c-0.3-0.5-0.7-1.1-1-1.7c0.4,1.1,0.8,2.3,1,3.5c0.4,1.8,0.5,3.7,0.5,5.6
		c0,2.2-0.3,4.6-0.8,7.1c-0.5,2.6-1.3,5-2.4,7.3c-1.2,2.6-2.8,4.9-4.6,6.7c-0.4,0.4-0.9,0.8-1.3,1.2c0.1,0.1,0.1,0.3,0.2,0.4
		c0.1,0.2,0.1,0.3,0.2,0.4c0.6-0.4,1.3-0.8,1.9-1.3l4.7-4.1l4.9,3.8c0.3,0.2,0.6,0.5,0.9,0.8c0.4-2.2,1-4.4,1.7-6.6
		c1.5-4.5,3.3-8.8,5.5-12.9C90.4,65.6,89.4,65,88.4,64.4z"/>
	<path class="st0" d="M28.3,62.6c1.3-1.6,2.5-3.7,3.4-6.3c1.1-2.9,1.9-6.2,2.5-9.6c0.6-3.5,0.9-6.6,0.9-9.4c0-0.8-0.1-2.3-0.4-5.3
		c-0.3-2.2-0.6-4.5-1.2-6.8c-0.2,0.4-0.4,0.9-0.6,1.4c-1.1,2.9-2.2,6.2-3.2,9.8c-1,3.7-1.9,7.3-2.5,10.9c-0.7,3.6-1.2,7-1.6,10.1
		c-0.2,1.9-0.3,3.3-0.4,4.4c0.4,0.4,0.8,0.7,1.2,1c0.7,0.5,1.1,0.5,1.3,0.5C27.8,63.1,28,63,28.3,62.6z"/>
	<path class="st1" d="M34.2,67.4c1.9-2.3,3.4-5.1,4.7-8.5c1.2-3.4,2.2-7.1,2.8-11s1-7.4,1-10.7c0-1.4-0.2-3.5-0.5-6.2
		s-0.8-5.4-1.4-8.1c-0.6-2.7-1.5-5-2.6-7s-2.3-3-3.9-3c-1.6,0-3.1,1-4.5,3s-2.8,4.6-4,7.8s-2.4,6.7-3.5,10.6s-1.9,7.7-2.7,11.5
		c-0.7,3.8-1.3,7.3-1.6,10.6c-0.4,3.3-0.5,5.8-0.5,7.6c1.2,2.1,2.7,3.7,4.5,5c1.8,1.2,3.7,1.8,5.7,1.8
		C30.2,70.8,32.4,69.7,34.2,67.4z M26.4,62.7c-0.4-0.3-0.8-0.6-1.2-1c0.1-1.1,0.2-2.5,0.4-4.4c0.4-3.1,0.9-6.5,1.6-10.1
		c0.7-3.6,1.5-7.3,2.5-10.9c1-3.6,2.1-6.9,3.2-9.8c0.2-0.5,0.4-0.9,0.6-1.4c0.5,2.3,0.9,4.6,1.2,6.8c0.3,3,0.4,4.6,0.4,5.3
		c0,2.8-0.3,6-0.9,9.4c-0.6,3.4-1.4,6.6-2.5,9.6c-1,2.6-2.1,4.7-3.4,6.3c-0.3,0.4-0.5,0.5-0.6,0.6C27.5,63.2,27.1,63.1,26.4,62.7z"
		/>
	<path class="st2" d="M46,105.8c-1.7-1-3.4-2.3-5.1-4.1c-1.7-1.8-3.3-3.9-4.8-6.3c-1.6-2.4-3-4.8-4.4-7.3c-1.4-2.4-2.6-4.7-3.7-6.8
		c-1.1-2.1-2-3.9-2.7-5.2l2.2,0.1c3.9,0.3,7.3-0.8,10-3.1c2.8-2.4,5-5.4,6.8-9.2c1.7-3.8,3-7.9,3.9-12.5c0.8-4.6,1.2-8.9,1.2-13.1
		c0-2.9-0.2-6.1-0.7-9.5c-0.5-3.4-1.2-6.5-2.4-9.5c-1.1-2.9-2.7-5.4-4.6-7.3c-1.8-2.1-4.2-3.1-7.2-3.1c-2.6,0-4.9,0.8-6.8,2.5
		s-3.5,3.8-4.9,6.3S20.3,23,19.4,26s-1.7,5.8-2.4,8.5l0.3-20.8c0-1.2-0.4-2.1-1.1-2.6c-0.7-0.5-1.6-0.7-2.6-0.8c-1,0-2,0.1-3.1,0.4
		C9.4,11,8.6,11.3,8,11.6c0.2,1.3,0.2,3.8,0.2,7.3c0,3.6-0.1,7.6-0.2,12c0.1,4.5,0,9.1-0.1,13.8c-0.1,4.8-0.2,9-0.2,12.7v34.4
		c0,1.7,0,3.3-0.1,4.8s0,2.9,0.2,4s0.7,2,1.5,2.6s2.1,0.9,3.9,0.9c0.5,0,1.1,0,1.6-0.1c0.6-0.1,1.1-0.3,1.5-0.6
		c0.5-0.3,0.8-0.7,1.1-1.2c0.3-0.5,0.3-1.2,0.2-2.1c-0.2-3.8-0.2-7.6-0.3-11.4c0-3.8-0.1-7.6-0.2-11.4c1.4,2.9,3.1,6.2,5.1,10.1
		s4.1,7.6,6.5,11.2s5,6.6,7.7,9.1c2.8,2.5,5.7,3.7,8.7,3.7c2.6,0,4.2-0.5,4.8-1.6s0.9-2.3,0.9-3.5C49.4,106.9,47.7,106.7,46,105.8z
		 M22.1,69c-1.8-1.2-3.3-2.9-4.5-5c-0.1-1.8,0.1-4.3,0.5-7.6s0.9-6.8,1.6-10.6s1.6-7.6,2.7-11.5s2.2-7.4,3.5-10.6
		c1.2-3.2,2.6-5.8,4-7.8s3-3,4.5-3s2.8,1,3.9,3c1.1,2,1.9,4.3,2.6,7c0.6,2.7,1.1,5.4,1.4,8.1c0.3,2.7,0.5,4.8,0.5,6.2
		c0,3.2-0.3,6.8-1,10.7c-0.6,3.9-1.6,7.5-2.8,11c-1.2,3.4-2.8,6.3-4.7,8.5c-1.9,2.3-4,3.4-6.4,3.4C25.8,70.8,24,70.2,22.1,69z"/>
	<path class="st1" d="M63.2,77.2c0.6,0,1.2-0.5,1.8-1.5c0.6-1,1.1-2.3,1.5-3.8c0.5-1.5,0.8-3.2,1.1-5c0.3-1.8,0.5-3.5,0.5-5
		S68,59.1,67.8,58c-0.3-1.1-0.7-1.7-1.4-1.8c-0.9-0.1-1.6,0.6-2.2,2.1c-0.5,1.5-0.9,3.4-1.2,5.6c-0.3,2.2-0.4,4.4-0.5,6.6
		c-0.1,2.2-0.1,4-0.1,5.2c0,0.3,0,0.6,0.1,0.9C62.6,77.1,62.9,77.2,63.2,77.2z"/>
	<path class="st2" d="M78.7,90.9c-1.2,1-2.5,1.9-3.8,2.6s-2.7,1-4.3,1c-1.4,0-2.6-0.5-3.6-1.6c-0.9-1.1-1.7-2.3-2.4-3.7
		c-0.6-1.4-1.1-2.9-1.4-4.5c-0.3-1.5-0.5-2.8-0.6-3.9h0.6c1.6,0,3-0.6,4.2-1.8c1.2-1.2,2.2-2.7,3.1-4.5c0.8-1.8,1.5-3.7,1.9-5.7
		S73,65,73,63.2c0-1.4-0.1-2.8-0.4-4.1s-0.7-2.5-1.2-3.6c-0.6-1.1-1.3-2-2.2-2.6c-0.9-0.7-2-1-3.2-1c-2.4,0-4.4,1-5.9,2.9
		s-2.7,4.2-3.5,6.9c-0.8,2.7-1.4,5.6-1.7,8.6s-0.5,5.7-0.5,8c0,2.9,0.3,5.6,1,8.2s1.7,4.9,3.1,6.9c1.4,2,3,3.6,5,4.7
		c2,1.1,4.2,1.7,6.8,1.7c1.9,0,3.5-0.3,4.8-0.8c1.3-0.6,2.4-1.2,3.3-1.9c0.8-0.7,1.3-1.7,1.5-3C80.1,92.7,79.7,91.7,78.7,90.9z
		 M62.4,75.8c0-1.2,0-3,0.1-5.2s0.2-4.4,0.5-6.6c0.3-2.2,0.7-4,1.2-5.6c0.5-1.5,1.2-2.2,2.2-2.1c0.7,0.1,1.2,0.7,1.4,1.8
		c0.3,1.1,0.4,2.4,0.3,3.9c0,1.5-0.2,3.2-0.5,5c-0.3,1.8-0.7,3.5-1.1,5c-0.5,1.5-1,2.8-1.5,3.8c-0.6,1-1.2,1.5-1.8,1.5
		c-0.4,0-0.6-0.2-0.7-0.5C62.5,76.4,62.4,76.1,62.4,75.8z"/>
	<path class="st1" d="M147.3,59.1c-0.3-0.5-0.9-0.9-1.5-1.1c-1.1-0.2-2,0.4-3,1.7c-0.9,1.3-1.7,3-2.3,5s-1.1,4.1-1.4,6.2
		c-0.3,2.1-0.5,3.8-0.5,5.1c0,0.5,0,1.5,0.1,3c0,1.5,0.1,3.1,0.3,4.6c0.2,1.6,0.4,3,0.9,4.2c0.4,1.2,1,1.9,1.9,1.9
		c1.3,0,2.3-1,3.2-3.1c0.8-2,1.5-4.4,2-7.1s0.8-5.3,1-7.9s0.3-4.4,0.3-5.5c0-0.9,0-1.7,0-2.6s-0.1-1.7-0.2-2.5
		C147.9,60.2,147.6,59.6,147.3,59.1z"/>
	<path class="st2" d="M122.3,84.7c1.6-3.5,2.4-6.8,2.4-9.8c0-4.1-0.8-7.3-2.3-9.7c-1.5-2.4-3.4-4.3-5.7-5.8
		c-2.3-1.5-4.7-2.7-7.4-3.7c-2.6-1-5.1-2.1-7.4-3.4c-2.3-1.3-4.2-2.9-5.7-4.9s-2.3-4.8-2.3-8.3c0-2.7,0.5-5.6,1.5-8.9
		c1-3.3,2.3-6.3,3.9-9.1s3.3-5.1,5.3-6.9c1.9-1.8,3.8-2.6,5.7-2.4c1.6,0.2,2.4,1.2,2.5,3.1s-0.2,3.9-0.8,6.2
		c-0.6,2.3-1.3,4.4-2.2,6.5c-0.9,2-1.5,3.4-1.8,3.9c0.5,0.8,1.2,1.4,1.9,1.8c0.7,0.4,1.4,0.6,2,0.6c0.9,0,1.8-0.7,2.6-2.1
		c0.8-1.4,1.5-3.1,2.2-5c0.6-1.9,1.2-3.8,1.5-5.7c0.4-1.9,0.6-3.4,0.6-4.4c0-1.6-0.3-3-0.9-4.1s-1.3-2.1-2.2-2.8
		c-0.9-0.7-1.9-1.2-3-1.5s-2.2-0.4-3.3-0.4c-3,0-5.9,1.1-9,3.3c-3,2.2-5.8,4.9-8.2,8.3c-2.5,3.3-4.4,7-6,11c-1.5,4-2.3,7.8-2.3,11.4
		c0,4.2,0.8,7.6,2.4,10.1c1.6,2.6,3.7,4.7,6.1,6.3c2.5,1.6,5.1,2.9,7.9,4c2.8,1,5.5,2.1,7.9,3.2c2.5,1.1,4.5,2.4,6.1,3.9
		s2.4,3.5,2.4,6.1c0,2.1-0.5,4.4-1.4,6.8c-0.9,2.5-2.1,4.9-3.6,7.2c-1.4,2.3-3,4.4-4.7,6.3s-3.2,3.2-4.7,4.1c-1.4,0.9-2.6,1-3.6,0.6
		c-0.9-0.5-1.4-1.9-1.4-4.3c0-2.5,0.3-5.1,1-7.8c0.7-2.8,1.5-5.4,2.4-7.8c0.9-2.5,1.9-4.7,2.9-6.6s1.7-3.4,2.3-4.3
		c-0.5-0.5-1-0.9-1.7-1.4c-0.7-0.4-1.4-0.7-2-0.9c-0.7-0.2-1.4-0.2-2,0c-0.7,0.2-1.2,0.7-1.7,1.6c-2.3,4.1-4.2,8.4-5.7,13
		s-2.3,8.9-2.3,12.9c0,3.4,1,6,2.9,7.8s4.1,2.6,6.6,2.6c2.4,0,5.1-1,7.9-2.9s5.5-4.4,7.9-7.4C118.7,91.4,120.7,88.2,122.3,84.7z"/>
	<path class="st1" d="M175,60c-0.5-0.8-1.2-1.1-2.2-1.1c-0.8,0-1.8,0.8-2.8,2.5c-1.1,1.7-2.1,3.7-3.1,6.2s-1.9,5.2-2.8,8.1
		c-0.8,2.9-1.4,5.7-1.8,8.1c-0.3,2.5-0.4,4.5-0.1,6.2c0.3,1.7,1.1,2.5,2.3,2.5c0.8,0,1.6-0.5,2.4-1.6c0.9-1,1.7-2.4,2.6-4
		c0.9-1.6,1.7-3.4,2.5-5.5c0.8-2,1.5-4,2.1-5.9s1.1-3.7,1.5-5.3c0.4-1.7,0.6-2.9,0.6-3.8c0-1.6-0.1-2.9-0.2-3.9
		C175.8,61.6,175.5,60.7,175,60z"/>
	<path class="st2" d="M151.2,85.8c0.8-2.5,1.4-5.1,1.7-7.9s0.5-5.3,0.5-7.6c0-1.5-0.1-3.3-0.2-5.3c-0.1-2-0.4-4-0.9-5.8
		s-1.2-3.4-2.2-4.6c-0.9-1.3-2.3-1.9-3.9-1.9c-3.7,0-6.3,2.2-7.7,6.6c-0.1-1-0.1-1.9-0.1-2.4c0-0.6,0-1.1,0-1.6s0-1,0-1.6
		s0-1.4,0-2.4c0-1.1-0.5-2.1-1.4-2.9c-0.9-0.8-2-1.3-3.1-1.5s-2.1,0-3.1,0.5c-0.9,0.5-1.4,1.5-1.4,3.1c0,6.3,0,13.3-0.1,21.1
		s-0.1,15.7-0.1,23.7s0.2,15.9,0.5,23.6s0.7,14.6,1.4,20.8c0.1,0.6,0.3,1,0.7,1.4s0.8,0.7,1.2,0.9c0.5,0.2,0.9,0.4,1.4,0.4
		s0.9,0.1,1.3,0.1c1.3,0,2.4-0.3,3.3-0.8c0.9-0.5,1.4-1.7,1.4-3.5c0-7.4-0.2-14.8-0.7-22.1c-0.5-7.3-0.8-14.7-0.9-22.1
		c0.5,0.2,1.1,0.3,1.6,0.4s1.1,0.1,1.6,0.1c2.3,0,4.3-0.8,5.7-2.5C149.2,90.3,150.4,88.3,151.2,85.8z M148.1,66.1
		c0,1-0.1,2.9-0.3,5.5s-0.5,5.3-1,7.9c-0.5,2.7-1.2,5-2,7.1c-0.8,2-1.9,3.1-3.2,3.1c-0.8,0-1.5-0.6-1.9-1.9
		c-0.4-1.2-0.7-2.6-0.9-4.2s-0.2-3.1-0.3-4.6c0-1.5-0.1-2.5-0.1-3c0-1.2,0.2-2.9,0.5-5.1c0.3-2.1,0.8-4.2,1.4-6.2
		c0.6-2,1.4-3.7,2.3-5c0.9-1.3,1.9-1.9,3-1.7c0.7,0.2,1.2,0.5,1.5,1.1c0.3,0.5,0.6,1.2,0.7,1.9c0.1,0.8,0.2,1.6,0.2,2.5
		C148.1,64.4,148.1,65.3,148.1,66.1z"/>
	<path class="st1" d="M263,84.9l-4.9-3.8l-4.7,4.1c-0.6,0.5-1.2,1-1.9,1.3c-0.1-0.1-0.1-0.3-0.2-0.4c-0.1-0.1-0.1-0.3-0.2-0.4
		c0.5-0.4,0.9-0.7,1.3-1.2c1.9-1.8,3.4-4.1,4.6-6.7c1.1-2.3,1.9-4.8,2.4-7.3s0.8-4.9,0.8-7.1c0-1.9-0.2-3.8-0.5-5.6
		c-0.4-2-1.1-3.9-2-5.7c-1.1-2.1-2.6-3.9-4.5-5.3c-2.2-1.6-4.9-2.5-7.7-2.5c-4.7,0-8.9,2-11.9,5.7c-2.1,2.6-3.7,5.8-4.8,9.4
		c-1,3.2-1.7,6.6-2,10.1c-0.1,0.5-0.1,1-0.1,1.5c-1.2,2.4-2.6,5-4.3,7.6c-1.6,2.5-3.5,4.8-5.5,6.7c-0.3,0.3-0.7,0.6-0.9,0.8
		c-0.2-0.7-0.4-1.4-0.4-2.2c-0.2-1.4-0.2-2.6-0.2-3.8c0-1.3,0.1-3.4,0.3-6.2c0.1-1,0.2-2.1,0.3-3.1c0.5,0.1,1,0.1,1.5,0.1
		c5,0,9.1-3,10.3-7.7c0.5-1.9,0.7-4.1,0.7-6.3c0-4.7-1.3-8.6-3.8-11.5c-2.8-3.2-6.5-4.8-11-4.8c-5.3,0-9.8,2.1-13.2,6
		c-2.5,3-4.5,6.6-5.9,10.9c-1.2,3.7-2,7.6-2.4,11.7c0.2-4,0.3-7.4,0.3-10.2c0-6-2.6-8.9-4.8-10.2c-2.1-1.3-4.5-1.9-7.3-1.9
		c-1.4,0-2.8,0.2-4.1,0.6c-1.4-0.5-2.9-0.8-4.4-0.8c-3.4,0-8.4,1.1-12.7,6.5c-0.3,0.3-0.5,0.6-0.7,1c-0.6-1.4-1.4-2.8-2.2-4
		c-2.4-3.2-6-5-10.1-5c-0.7,0-1.3,0-2,0.1c-0.6-1-1.4-1.9-2.3-2.7c-2-1.7-4.2-2.8-6.7-3.2c-0.7-0.1-1.4-0.2-2.2-0.2
		c-2.1,0-4.1,0.5-5.9,1.5c-3.4,1.9-5.4,5.4-5.4,9.7c0,1.1,0,2.2,0,3.3c-0.3-0.2-0.6-0.4-0.9-0.6c-2.7-1.8-5.7-3.3-8.8-4.4
		c-2.3-0.9-4.4-1.8-6.3-2.9c-1.4-0.8-2.5-1.7-3.4-2.9c-0.2-0.2-0.7-1.1-0.7-3.7c0-1,0.1-2,0.3-3.2c1.1,1.6,2.5,2.9,4.1,3.8
		c1.9,1.1,3.9,1.7,5.9,1.7c2.2,0,6.3-0.8,9.2-6.1c1-1.8,1.9-3.9,2.7-6.3c0.7-2.2,1.3-4.4,1.8-6.7c0.5-2.5,0.7-4.3,0.7-5.9
		c0-2.8-0.6-5.3-1.7-7.5c-1-2.1-2.4-3.9-4.1-5.3s-3.7-2.4-5.9-3c-1.7-0.4-3.5-0.7-5.3-0.7c-4.6,0-9.1,1.6-13.4,4.7
		c-3.7,2.6-7,6-9.9,9.9s-5.2,8.2-7,12.8c-1.8,4.8-2.8,9.6-2.8,14.1c0,3.9,0.6,7.4,1.8,10.5v-0.1c-1.1-2.1-2.6-3.9-4.5-5.3
		c-2.2-1.6-4.9-2.5-7.7-2.5c-3.5,0-6.8,1.1-9.4,3.3c0.4-3.2,0.6-6.3,0.6-9.3c0-3.3-0.3-6.8-0.8-10.5c-0.5-3.9-1.5-7.7-2.8-11.2
		c-1.5-3.9-3.6-7.3-6.3-10C43.7,3,39.3,1.2,34.4,1.2c-4.5,0-8.6,1.5-11.8,4.4c-0.2,0.1-0.3,0.3-0.5,0.4c-0.6-0.6-1.2-1.1-1.7-1.4
		c-1.9-1.2-4-1.9-6.4-2c-0.3,0-0.5,0-0.8,0c-1.5,0-3.1,0.2-4.6,0.6C7.2,3.7,6,4.1,4.9,4.6L0,6.9l0.6,5.4c0.1,0.5,0.2,2,0.1,6.4
		c0,3.6-0.1,7.6-0.2,12c-0.1,4.5-0.2,9-0.3,13.8c0,4.8-0.1,9.2-0.1,12.9v34.4c0,1.6,0,3.1-0.1,4.5c-0.1,2.2,0,4.1,0.4,5.9
		c0.6,2.9,2.1,5.4,4.3,7.2c2.2,1.7,5,2.5,8.6,2.5c0.9,0,1.9-0.1,2.9-0.2c1.6-0.3,3-0.8,4.3-1.6c1.6-1,2.9-2.5,3.8-4.2
		c0,0,0-0.1,0.1-0.1c2.2,3,4.6,5.6,7.1,7.9c4.2,3.7,8.8,5.6,13.8,5.6c6.9,0,10-3,11.4-5.6c1.2-2.2,1.9-4.6,1.9-7.2v-2.3
		c0.3,0.2,0.7,0.4,1,0.6c3.1,1.8,6.7,2.7,10.6,2.7c2.9,0,5.5-0.5,7.8-1.4c2-0.8,3.7-1.9,5.2-3.1l0.1-0.1l0.1-0.1
		c0.4-0.3,0.7-0.7,1-1.1c1.1,2.8,2.7,4.8,4.1,6.1c3.3,3,7.4,4.6,11.8,4.6c4,0,8.1-1.4,12.2-4.3c3.2-2.2,6.2-5,9-8.3
		c0.1,6.5,0.2,12.9,0.4,19.2c0.3,7.8,0.8,15,1.5,21.4v0.2c0.3,2.2,1.3,4.3,2.8,5.8c0.9,0.9,2,1.7,3.1,2.3c1.3,0.7,2.7,1.1,4.2,1.3
		c0.8,0.1,1.4,0.1,2,0.1c2.6,0,5-0.6,7.1-1.8c1.9-1.1,5.2-3.9,5.2-10.1c0-7.5-0.3-15.1-0.8-22.6c-0.3-4.6-0.5-9.3-0.7-14
		c1.8-0.5,3.5-1.4,5-2.6c2.5,4.2,6.9,6.6,12.1,6.6c3.2,0,6.1-0.9,8.8-2.8c0.6-0.4,1.1-0.8,1.6-1.2c0.7,0.9,1.5,1.8,2.4,2.6
		c2.6,2.2,5.9,3.3,9.8,3.3c3.8,0,7.4-1.4,10.7-4.2c0.7-0.6,1.3-1.1,1.9-1.8c3.1,3.1,7.9,6,15.3,6c4.2,0,8.4-1.4,12.5-4.1
		c2-1.3,3.9-2.9,5.8-4.7c1.9,2.6,4.2,4.7,6.9,6.2c3.1,1.8,6.7,2.7,10.6,2.7c2.9,0,5.5-0.5,7.8-1.4c2-0.8,3.7-1.9,5.2-3.1l0.1-0.1
		l0.1-0.1c2.2-2,3.6-4.7,4-7.8C267.6,90.9,266.1,87.3,263,84.9z M48,88.4c0.9,3.5,2.3,6.6,4.1,9.3l0.1,0.1l-3,1.1
		c-0.9-0.6-1.8-1.4-2.7-2.4c-1.4-1.5-2.7-3.2-4-5.3c-1.5-2.3-2.9-4.6-4.1-6.9c-0.4-0.7-0.8-1.5-1.2-2.2c1.9-0.8,3.7-1.9,5.4-3.4
		c1.5-1.3,3-2.8,4.3-4.5c-0.1,1.4-0.1,2.8-0.1,4C46.8,81.7,47.2,85.1,48,88.4z M50.1,109.8c-0.6,1.1-2.2,1.6-4.8,1.6
		c-3,0-5.9-1.2-8.7-3.7s-5.3-5.5-7.7-9.1s-4.6-7.3-6.5-11.2c-2-3.9-3.7-7.3-5.1-10.1c0.1,3.8,0.1,7.6,0.2,11.4
		c0,3.8,0.1,7.6,0.3,11.4c0.2,0.9,0.1,1.5-0.2,2.1c-0.3,0.5-0.6,0.9-1.1,1.2c-0.5,0.3-1,0.5-1.5,0.6c-0.6,0.1-1.1,0.1-1.6,0.1
		c-1.8,0-3.1-0.3-3.9-0.9c-0.8-0.6-1.3-1.5-1.5-2.6c-0.2-1.1-0.3-2.5-0.2-4c0.1-1.5,0.1-3.1,0.1-4.8V57.4c0-3.7,0.1-7.9,0.2-12.7
		C8,40,8.1,35.4,8.2,30.9s0.1-8.5,0.2-12c0-3.6,0-6-0.2-7.3c0.6-0.3,1.4-0.6,2.5-0.9c1.1-0.3,2.1-0.4,3.1-0.4s1.8,0.3,2.6,0.8
		c0.7,0.5,1.1,1.3,1.1,2.6l-0.3,20.8c0.7-2.7,1.5-5.5,2.4-8.5s2-5.8,3.4-8.3s3-4.6,4.9-6.3c1.7-1.6,4-2.5,6.6-2.5c3,0,5.4,1,7.3,2.9
		c1.9,1.9,3.5,4.4,4.6,7.3s1.9,6.1,2.4,9.5c0.5,3.4,0.7,6.5,0.7,9.5c0,4.2-0.4,8.6-1.2,13.1c-0.8,4.6-2.1,8.7-3.9,12.5
		c-1.7,3.8-4,6.8-6.8,9.2c-2.8,2.4-6.1,3.4-10,3.1l-2.2-0.1c0.7,1.3,1.6,3.1,2.7,5.2s2.3,4.4,3.7,6.8c1.4,2.4,2.8,4.8,4.4,7.3
		c1.6,2.4,3.2,4.5,4.8,6.3c1.7,1.8,3.3,3.2,5.1,4.1c1.7,0.9,3.3,1.1,4.9,0.6C51,107.6,50.7,108.7,50.1,109.8z M79.9,94
		c-0.2,1.3-0.6,2.3-1.5,3s-2,1.4-3.3,1.9c-1.3,0.6-2.9,0.8-4.8,0.8c-2.6,0-4.8-0.6-6.8-1.7s-3.6-2.7-5-4.7s-2.4-4.3-3.1-6.9
		c-0.7-2.6-1-5.3-1-8.2c0-2.3,0.2-4.9,0.5-8c0.3-3,0.9-5.9,1.7-8.6c0.8-2.7,2-5,3.5-6.9s3.5-2.9,5.9-2.9c1.2,0,2.3,0.3,3.2,1
		c0.9,0.7,1.6,1.5,2.2,2.6s1,2.3,1.2,3.6c0.3,1.3,0.4,2.7,0.4,4.1c0,1.7-0.2,3.6-0.6,5.6s-1,3.9-1.9,5.7c-0.8,1.8-1.9,3.3-3.1,4.5
		s-2.6,1.8-4.2,1.8h-0.6c0.1,1.1,0.3,2.4,0.6,3.9s0.8,3,1.4,4.5c0.6,1.4,1.4,2.7,2.4,3.7c0.9,1.1,2.1,1.6,3.6,1.6s2.9-0.3,4.3-1
		c1.3-0.7,2.6-1.5,3.8-2.6C79.7,91.7,80.1,92.7,79.9,94z M86,79.1c-0.7,2.2-1.3,4.4-1.7,6.6c-0.3-0.3-0.6-0.5-0.9-0.8l-4.9-3.8
		l-4.7,4.1c-0.6,0.5-1.2,1-1.9,1.3c-0.1-0.1-0.1-0.3-0.2-0.4s-0.1-0.3-0.2-0.4c0.5-0.4,0.9-0.7,1.3-1.2c1.9-1.8,3.4-4.1,4.6-6.7
		c1.1-2.3,1.9-4.8,2.4-7.3s0.8-4.9,0.8-7.1c0-1.9-0.2-3.8-0.5-5.6c-0.2-1.2-0.6-2.4-1-3.5c0.3,0.6,0.6,1.2,1,1.7
		c2.2,3.5,5,6.4,8.4,8.6c1,0.6,2,1.3,3,1.8C89.3,70.2,87.4,74.6,86,79.1z M116.2,94.4c-2.4,3-5.1,5.5-7.9,7.4s-5.5,2.9-7.9,2.9
		c-2.5,0-4.7-0.9-6.6-2.6c-1.9-1.8-2.9-4.3-2.9-7.8c0-4,0.8-8.3,2.3-12.9s3.4-9,5.7-13c0.5-0.9,1-1.4,1.7-1.6s1.4-0.2,2,0
		c0.7,0.2,1.4,0.5,2,0.9c0.7,0.4,1.2,0.9,1.7,1.4c-0.5,1-1.3,2.4-2.3,4.3s-1.9,4.2-2.9,6.6c-0.9,2.5-1.8,5.1-2.4,7.8
		c-0.7,2.8-1,5.4-1,7.8s0.5,3.8,1.4,4.3s2.1,0.3,3.6-0.6c1.4-0.9,3-2.2,4.7-4.1s3.2-3.9,4.7-6.3c1.4-2.3,2.6-4.7,3.6-7.2
		c0.9-2.5,1.4-4.8,1.4-6.8c0-2.6-0.8-4.6-2.4-6.1s-3.7-2.8-6.1-3.9c-2.5-1.1-5.1-2.2-7.9-3.2s-5.5-2.4-7.9-4
		c-2.5-1.6-4.5-3.7-6.1-6.3s-2.4-5.9-2.4-10.1c0-3.6,0.8-7.4,2.3-11.4s3.5-7.7,6-11s5.2-6.1,8.2-8.3s6-3.3,9-3.3
		c1.1,0,2.3,0.1,3.3,0.4c1.1,0.3,2.1,0.8,3,1.5s1.6,1.6,2.2,2.8c0.6,1.1,0.9,2.5,0.9,4.1c0,1-0.2,2.5-0.6,4.4s-0.9,3.8-1.5,5.7
		s-1.4,3.6-2.2,5c-0.8,1.4-1.6,2.1-2.6,2.1c-0.6,0-1.3-0.2-2-0.6c-0.7-0.4-1.3-1-1.9-1.8c0.3-0.6,0.9-1.9,1.8-3.9s1.6-4.2,2.2-6.5
		s0.9-4.3,0.8-6.2s-0.9-2.9-2.5-3.1c-1.9-0.2-3.8,0.6-5.7,2.4c-1.9,1.8-3.7,4.1-5.3,6.9c-1.6,2.8-2.9,5.8-3.9,9.1s-1.5,6.3-1.5,8.9
		c0,3.5,0.8,6.3,2.3,8.3s3.4,3.6,5.7,4.9c2.3,1.3,4.7,2.4,7.4,3.4c2.6,1,5.1,2.2,7.4,3.7s4.2,3.4,5.7,5.8s2.3,5.6,2.3,9.7
		c0,3-0.8,6.3-2.4,9.8C120.7,88.2,118.7,91.4,116.2,94.4z M142,94.5c-0.5,0-1.1,0-1.6-0.1s-1.1-0.2-1.6-0.4
		c0.1,7.4,0.4,14.8,0.9,22.1c0.5,7.3,0.7,14.7,0.7,22.1c0,1.8-0.5,3-1.4,3.5s-2,0.8-3.3,0.8c-0.4,0-0.8,0-1.3-0.1
		c-0.5,0-1-0.2-1.4-0.4c-0.5-0.2-0.9-0.5-1.2-0.9c-0.4-0.4-0.6-0.9-0.7-1.4c-0.7-6.2-1.2-13.1-1.4-20.8c-0.3-7.7-0.4-15.6-0.5-23.6
		c0-8,0-15.9,0.1-23.7s0.1-14.8,0.1-21.1c0-1.5,0.5-2.5,1.4-3.1c0.9-0.5,2-0.7,3.1-0.5s2.1,0.7,3.1,1.5c0.9,0.8,1.4,1.8,1.4,2.9
		c0,1,0,1.9,0,2.4c0,0.6,0,1.1,0,1.6s0,1,0,1.6s0,1.4,0.1,2.4c1.4-4.4,4-6.6,7.7-6.6c1.7,0,3,0.6,3.9,1.9c0.9,1.3,1.7,2.8,2.2,4.6
		s0.8,3.7,0.9,5.8c0.1,2,0.2,3.8,0.2,5.3c0,2.3-0.2,4.8-0.5,7.6c-0.3,2.8-0.9,5.4-1.7,7.9s-2,4.5-3.5,6.2
		C146.3,93.7,144.4,94.5,142,94.5z M259.6,94c-0.2,1.3-0.6,2.3-1.5,3s-2,1.4-3.3,1.9c-1.3,0.6-2.9,0.8-4.8,0.8
		c-2.6,0-4.8-0.6-6.8-1.7s-3.6-2.7-5-4.7s-2.4-4.3-3.1-6.9c-0.3-1-0.5-2-0.6-3.1c-1.2,2.2-2.6,4.3-4.2,6.2c-2.4,2.9-5,5.3-7.8,7.2
		c-2.8,1.9-5.6,2.9-8.2,2.9c-4.9,0-8.6-1.7-11.1-5.2c-1.5-2.1-2.6-4.8-3.2-7.9c-0.8,1.7-1.6,3.3-2.6,4.8c-1.5,2.3-3.2,4.3-5.2,5.9
		c-1.9,1.6-3.9,2.4-5.8,2.4c-2,0-3.7-0.5-4.8-1.5c-1.2-1-2.1-2.3-2.7-3.9c-0.6-1.6-1.1-3.4-1.4-5.4c-0.3-2-0.5-4-0.7-6
		c-0.5,1.7-1.2,3.4-2,5.2c-0.8,1.8-1.7,3.4-2.8,4.8s-2.3,2.6-3.7,3.6s-2.8,1.4-4.4,1.4c-2.7,0-4.7-1.1-5.8-3.2s-1.7-4.7-1.7-7.8
		c0-2.7,0.3-5.8,1-9.6c0.7-3.7,1.7-7.3,3-10.7c1.3-3.4,3-6.3,4.9-8.8c2-2.4,4.2-3.6,6.8-3.6c0.8,0,1.6,0.2,2.3,0.5s1.5,0.7,2.2,1.2
		c1.1-1,2.5-1.6,4-1.6c1.4,0,2.5,0.3,3.3,0.8s1.2,1.8,1.2,3.8c0,2.8-0.1,6.1-0.3,9.9c-0.2,3.9-0.3,7.6-0.3,11.2s0.2,6.7,0.7,9.2
		s1.4,3.8,2.7,3.8c0.8,0,1.7-0.6,2.8-1.8c1.1-1.2,2.3-2.7,3.5-4.6s2.3-3.8,3.3-5.9c0.8-1.6,1.5-3.2,2-4.7c0.1-1.8,0.2-3.7,0.4-5.7
		c0.4-3.7,1.1-7.2,2.2-10.5c1.1-3.3,2.5-6,4.4-8.3c1.9-2.2,4.4-3.4,7.4-3.4c2.2,0,3.9,0.7,5.2,2.2s1.9,3.6,1.9,6.5
		c0,1.6-0.2,3.1-0.5,4.4c-0.3,1.3-1.3,2-2.9,2c-0.5,0-1.1-0.1-1.9-0.4c-0.8-0.2-1.2-0.7-1.2-1.5c0-0.7,0.1-1.5,0.2-2.4
		c0.2-0.9,0.2-1.9,0.3-2.7c0-0.9,0-1.6-0.2-2.2c-0.2-0.6-0.5-0.9-1.1-0.9c-1.1,0-2,1.1-2.7,3.3c-0.8,2.2-1.4,4.8-1.8,7.8
		c-0.5,3-0.8,6-1,9s-0.3,5.3-0.3,6.8c0,1.4,0.1,3,0.3,4.6c0.2,1.7,0.5,3.2,1.1,4.6c0.5,1.4,1.2,2.6,2.2,3.6c0.9,0.9,2.1,1.4,3.5,1.4
		c2.5,0,5-1.2,7.4-3.5c2.5-2.3,4.7-5,6.6-8.1c2-3.1,3.6-6.1,5-9c0.1-0.2,0.2-0.5,0.3-0.7c0.1-0.9,0.1-1.8,0.2-2.8
		c0.3-3,0.9-5.9,1.7-8.6c0.8-2.7,2-5,3.5-6.9s3.5-2.9,5.9-2.9c1.2,0,2.3,0.3,3.2,1s1.6,1.5,2.2,2.6c0.6,1.1,1,2.3,1.2,3.6
		c0.3,1.3,0.4,2.7,0.4,4.1c0,1.7-0.2,3.6-0.6,5.6c-0.4,2-1,3.9-1.9,5.7c-0.8,1.8-1.9,3.3-3.1,4.5c-1.2,1.2-2.6,1.8-4.2,1.8h-0.6
		c0.1,1.1,0.3,2.4,0.6,3.9s0.8,3,1.4,4.5c0.6,1.4,1.4,2.7,2.4,3.7c0.9,1.1,2.1,1.6,3.6,1.6s2.9-0.3,4.3-1c1.3-0.7,2.6-1.5,3.8-2.6
		C259.3,91.7,259.8,92.7,259.6,94z"/>
	<path class="st1" d="M242.8,64c-0.3,2.2-0.4,4.4-0.5,6.6s-0.1,4-0.1,5.2c0,0.3,0,0.6,0.1,0.9s0.3,0.5,0.7,0.5
		c0.6,0,1.2-0.5,1.8-1.5s1.1-2.3,1.5-3.8c0.5-1.5,0.8-3.2,1.1-5s0.5-3.5,0.5-5s-0.1-2.8-0.3-3.9c-0.3-1.1-0.7-1.7-1.4-1.8
		c-0.9-0.1-1.6,0.6-2.2,2.1C243.4,59.9,243,61.8,242.8,64z"/>
	<path class="st2" d="M258.4,90.9c-1.2,1-2.5,1.9-3.8,2.6s-2.7,1-4.3,1c-1.4,0-2.6-0.5-3.6-1.6c-0.9-1.1-1.7-2.3-2.4-3.7
		c-0.6-1.4-1.1-2.9-1.4-4.5c-0.3-1.5-0.5-2.8-0.6-3.9h0.6c1.6,0,3-0.6,4.2-1.8c1.2-1.2,2.2-2.7,3.1-4.5c0.8-1.8,1.5-3.7,1.9-5.7
		s0.6-3.8,0.6-5.6c0-1.4-0.1-2.8-0.4-4.1c-0.3-1.3-0.7-2.5-1.2-3.6c-0.6-1.1-1.3-2-2.2-2.6c-0.9-0.7-2-1-3.2-1c-2.4,0-4.4,1-5.9,2.9
		s-2.7,4.2-3.5,6.9c-0.8,2.7-1.4,5.6-1.7,8.6c-0.1,1-0.2,1.9-0.2,2.8c-0.1,0.2-0.2,0.5-0.3,0.7c-1.4,2.9-3,5.9-5,9s-4.2,5.8-6.6,8.1
		c-2.5,2.3-4.9,3.5-7.4,3.5c-1.4,0-2.6-0.5-3.5-1.4s-1.6-2.1-2.2-3.6c-0.5-1.4-0.9-3-1.1-4.6c-0.2-1.7-0.3-3.2-0.3-4.6
		c0-1.5,0.1-3.8,0.3-6.8s0.6-6,1-9c0.5-3,1.1-5.6,1.8-7.8c0.8-2.2,1.7-3.3,2.7-3.3c0.6,0,1,0.3,1.1,0.9c0.2,0.6,0.2,1.4,0.2,2.2
		c0,0.9-0.1,1.8-0.3,2.7c-0.2,1-0.2,1.8-0.2,2.4c0,0.8,0.4,1.3,1.2,1.5s1.4,0.4,1.9,0.4c1.6,0,2.6-0.7,2.9-2
		c0.3-1.3,0.5-2.8,0.5-4.4c0-2.9-0.6-5-1.9-6.5c-1.3-1.5-3-2.2-5.2-2.2c-3,0-5.5,1.1-7.4,3.4c-1.9,2.2-3.4,5-4.4,8.3
		c-1.1,3.3-1.8,6.8-2.2,10.5c-0.2,2-0.4,3.9-0.4,5.7c-0.5,1.5-1.2,3.1-2,4.7c-1,2.1-2.1,4.1-3.3,5.9c-1.2,1.9-2.3,3.4-3.5,4.6
		c-1.1,1.2-2.1,1.8-2.8,1.8c-1.4,0-2.3-1.3-2.7-3.8c-0.5-2.5-0.7-5.6-0.7-9.2s0.1-7.3,0.3-11.2c0.2-3.8,0.3-7.2,0.3-9.9
		c0-2-0.4-3.3-1.2-3.8s-1.9-0.8-3.3-0.8c-1.5,0-2.8,0.5-4,1.6c-0.8-0.5-1.5-0.9-2.2-1.2s-1.5-0.5-2.3-0.5c-2.6,0-4.8,1.2-6.8,3.6
		c-2,2.4-3.6,5.3-4.9,8.8c-1.3,3.4-2.3,7-3,10.7s-1,6.9-1,9.6c0,3,0.6,5.6,1.7,7.8c1.1,2.1,3.1,3.2,5.8,3.2c1.6,0,3.1-0.5,4.4-1.4
		c1.4-0.9,2.6-2.1,3.7-3.6c1.1-1.4,2-3,2.8-4.8s1.5-3.5,2-5.2c0.2,2,0.5,4,0.7,6c0.3,2,0.7,3.8,1.4,5.4c0.6,1.6,1.6,2.9,2.7,3.9
		c1.2,1,2.8,1.5,4.8,1.5s3.9-0.8,5.8-2.4c1.9-1.6,3.6-3.6,5.2-5.9c1-1.5,1.8-3.1,2.6-4.8c0.6,3.1,1.7,5.7,3.2,7.9
		c2.5,3.5,6.2,5.2,11.1,5.2c2.6,0,5.4-0.9,8.2-2.9c2.8-1.9,5.4-4.3,7.8-7.2c1.6-1.9,3-4,4.2-6.2c0.2,1,0.4,2.1,0.6,3.1
		c0.7,2.6,1.7,4.9,3.1,6.9c1.4,2,3,3.6,5,4.7s4.2,1.7,6.8,1.7c1.9,0,3.5-0.3,4.8-0.8c1.3-0.6,2.4-1.2,3.3-1.9c0.8-0.7,1.3-1.7,1.5-3
		C259.8,92.7,259.3,91.7,258.4,90.9z M175.6,70.2c-0.4,1.7-0.9,3.4-1.5,5.3s-1.3,3.9-2.1,5.9s-1.6,3.9-2.5,5.5s-1.7,2.9-2.6,4
		c-0.9,1-1.7,1.6-2.4,1.6c-1.2,0-2-0.8-2.3-2.5s-0.3-3.7,0.1-6.2c0.3-2.5,0.9-5.2,1.8-8.1c0.8-2.9,1.8-5.7,2.8-8.1
		c1-2.5,2.1-4.5,3.1-6.2c1.1-1.7,2-2.5,2.8-2.5c1,0,1.7,0.4,2.2,1.1c0.5,0.8,0.8,1.6,1,2.6s0.2,2.2,0.2,3.9
		C176.2,67.3,176,68.5,175.6,70.2z M246.1,56.3c0.7,0.1,1.2,0.7,1.4,1.8c0.3,1.1,0.4,2.4,0.3,3.9c0,1.5-0.2,3.2-0.5,5
		s-0.7,3.5-1.1,5c-0.5,1.5-1,2.8-1.5,3.8c-0.6,1-1.2,1.5-1.8,1.5c-0.4,0-0.6-0.2-0.7-0.5c-0.1-0.3-0.1-0.6-0.1-0.9
		c0-1.2,0-3,0.1-5.2s0.2-4.4,0.5-6.6c0.3-2.2,0.7-4,1.2-5.6C244.5,56.9,245.2,56.2,246.1,56.3z"/>
</g>
</svg>
